<svg xmlns="http://www.w3.org/2000/svg" id="Left1" width="576" height="1080" viewBox="0 0 576 1080">
    <defs>
        <style>
            .cls-3{fill:#541388}.cls-4{fill:#e0e0e0}.cls-5{fill:#fafafa}.cls-6{fill:#dbdadf}.cls-7{fill:#b5b2bb}.cls-8,.cls-9{opacity:.3}.cls-10,.cls-19,.cls-20{opacity:.2}.cls-11,.cls-17{opacity:.1}.cls-12{fill:#f4f4f4}.cls-13,.cls-20,.cls-23{fill:#fff}.cls-13{opacity:.5}.cls-14{fill:#433f49}.cls-15{fill:#24212b}.cls-16{fill:#65616d}.cls-18{fill:#f5f5f5}.cls-21{fill:#fcca9d}.cls-22{opacity:.15}.cls-26{stroke:#fff;stroke-miterlimit:10;stroke-width:3px}
        </style>
    </defs>
    <path id="Left" fill="#fadcff" d="M0 0H576V1080H0z"/>
    <g id="Example_1" transform="translate(-115.2 467.518)">
        <path id="Path_35" fill="rgba(84,19,136,0.2)" d="M193.543 480.523l-18.168-222.7a24.035 24.035 0 0 1 4.445-15.965l90.687-125.477a23.8 23.8 0 0 1 9.432-7.731 24.272 24.272 0 0 1 12.022-2.087l310.368 27.368a23.653 23.653 0 0 1 13.336 5.566 23.939 23.939 0 0 1 7.693 12.215l42.637 164.098a24.092 24.092 0 0 1-.077 12.293l-41.71 152.923z" transform="translate(-13.554)"/>
        <path id="Path_36" d="M401.518 297.1H347.4v35.757h54.118z" class="cls-3" transform="translate(-119.13 -116.933)"/>
        <path id="Path_37" d="M401.518 297.1H347.4v35.757h54.118z" class="cls-4" transform="translate(-119.13 -116.933)"/>
        <path id="Path_38" d="M402.53 300.9H352.2v32.7h50.33z" class="cls-5" transform="translate(-122.075 -119.264)"/>
        <path id="Path_39" d="M406.863 318H371.3v19.405h35.563z" class="cls-4" transform="translate(-133.792 -129.754)"/>
        <path id="Path_40" d="M256.055 950.7l-.155 38.231 47.817.193.155-38.231z" class="cls-6" transform="translate(-63 -517.878)"/>
        <path id="Path_41" d="M260.316 957l-.116 33.4 44.454.155.116-33.4z" class="cls-7" transform="translate(-65.638 -521.743)"/>
        <g id="Group_49" class="cls-8" transform="translate(192.9 432.822)">
            <path id="Path_42" d="M256.055 950.7l-.155 38.231 47.817.193.155-38.231z" class="cls-9" transform="translate(-255.9 -950.7)"/>
        </g>
        <path id="Path_43" d="M260.2 1010.52l15.617-20.72 9.587 13.027 6.533-6.919 12.718 14.766z" class="cls-7" transform="translate(-65.638 -541.864)"/>
        <path id="Path_44" d="M324.922 977.879a3.419 3.419 0 0 1-2.165 3.208 3.6 3.6 0 0 1-2.01.193 3.356 3.356 0 0 1-1.778-.966 3.668 3.668 0 0 1-.966-1.778 3.539 3.539 0 0 1 .193-2.01 3.23 3.23 0 0 1 1.314-1.546 3.439 3.439 0 0 1 1.933-.58 3.4 3.4 0 0 1 2.474 1.044 2.982 2.982 0 0 1 .734 1.16 2.7 2.7 0 0 1 .271 1.275z" class="cls-7" transform="translate(-101.059 -532.417)"/>
        <path id="Path_45" d="M237.855 940.5l-.155 38.231 47.817.193.155-38.231z" class="cls-6" transform="translate(-51.836 -511.621)"/>
        <path id="Path_46" d="M242.116 946.7L242 980.1l44.454.155.116-33.4z" class="cls-7" transform="translate(-54.474 -515.424)"/>
        <path id="Path_47" d="M238.055 940.7l-.155 38.037 47.585.193.155-38.037z" class="cls-10" transform="translate(-51.958 -511.744)"/>
        <path id="Path_48" d="M242 1000.22l15.617-20.72 9.587 13.027 6.533-6.919 12.718 14.766z" class="cls-7" transform="translate(-54.474 -535.545)"/>
        <path id="Path_49" d="M306.722 967.579a3.419 3.419 0 0 1-2.165 3.208 3.6 3.6 0 0 1-2.01.193 3.356 3.356 0 0 1-1.778-.966 3.668 3.668 0 0 1-.966-1.778 3.539 3.539 0 0 1 .193-2.01 3.23 3.23 0 0 1 1.314-1.546 3.439 3.439 0 0 1 1.933-.58 3.515 3.515 0 0 1 2.474 1.044 3.325 3.325 0 0 1 1.005 2.435z" class="cls-7" transform="translate(-89.894 -526.098)"/>
        <path id="Path_50" d="M221.655 932l-.155 38.231 47.817.193.155-38.231z" class="cls-6" transform="translate(-41.898 -506.407)"/>
        <path id="Path_51" d="M226.016 938.2l-.116 33.4 44.454.155.116-33.4z" class="cls-7" transform="translate(-44.597 -510.21)"/>
        <path id="Path_52" d="M221.355 931.6l-.155 38.54 48.011.193.155-38.54z" class="cls-11" transform="translate(-41.714 -506.161)"/>
        <path id="Path_53" d="M225.8 991.72L241.417 971 251 984.027l6.533-6.919 12.718 14.767z" class="cls-7" transform="translate(-44.536 -530.331)"/>
        <path id="Path_54" d="M290.522 959.018a3.419 3.419 0 0 1-2.165 3.208 3.29 3.29 0 0 1-2.01.193 3.356 3.356 0 0 1-1.778-.966 3.622 3.622 0 0 1-.966-1.817 3.539 3.539 0 0 1 .193-2.01 3.23 3.23 0 0 1 1.314-1.546 3.885 3.885 0 0 1 1.933-.58 3.515 3.515 0 0 1 2.474 1.044 3.324 3.324 0 0 1 1.005 2.474z" class="cls-7" transform="translate(-79.956 -520.823)"/>
        <path id="Path_55" d="M203.555 942.6l-.155 38.231 47.817.193.155-38.231z" class="cls-6" transform="translate(-30.795 -512.909)"/>
        <path id="Path_56" d="M207.916 948.9l-.116 33.4 44.454.155.116-33.4z" class="cls-7" transform="translate(-33.494 -516.774)"/>
        <path id="Path_57" d="M207.7 1002.42l15.617-20.72 9.587 13.027 6.533-6.919 12.718 14.766z" class="cls-12" transform="translate(-33.433 -536.895)"/>
        <path id="Path_58" d="M272.422 969.779a3.419 3.419 0 0 1-2.165 3.208 3.6 3.6 0 0 1-2.01.193 3.356 3.356 0 0 1-1.778-.966 3.668 3.668 0 0 1-.966-1.778 3.539 3.539 0 0 1 .193-2.01 3.23 3.23 0 0 1 1.314-1.546 3.439 3.439 0 0 1 1.933-.58 3.4 3.4 0 0 1 2.474 1.044 2.981 2.981 0 0 1 .734 1.16 2.3 2.3 0 0 1 .271 1.275z" class="cls-12" transform="translate(-68.853 -527.448)"/>
        <path id="Path_59" d="M355.2 978.9l-27.6.077.077 36.916 27.6-.077z" class="cls-3" transform="translate(-106.984 -535.177)"/>
        <path id="Path_60" d="M355.2 978.9l-27.6.077.077 36.916 27.6-.077z" class="cls-10" transform="translate(-106.984 -535.177)"/>
        <path id="Path_61" d="M190.8 979.155l.077 36.916 55.2-.155L246 979zm33.515 8.659l-11.751.039a2.513 2.513 0 1 1 0-5.025l11.751-.039a2.513 2.513 0 1 1 0 5.025z" class="cls-3" transform="translate(-23.065 -535.239)"/>
        <path id="Path_62" d="M1341.8 651.751v2.706h38.115l.464-1.624a24.091 24.091 0 0 0 .077-12.293l-1.356-5.14v16.39h-37.3z" class="cls-6" transform="translate(-729.136 -324.46)"/>
        <path id="Path_63" d="M1223.8 473.638h41.632v-2.668l-3.518.039.039-.039h-33.823l-.039.039.039-24.009v-4.523h-1.7v-1.353h1.7v-28.717h-1.7v-1.353h1.7v-28.76h-1.7v-1.353h1.7V344.6h50.059l-1.005-3.9h-53.307v132.938z" class="cls-6" transform="translate(-656.75 -143.679)"/>
        <path id="Path_64" d="M1292.423 355.655V350.9H1278.7v27.175z" class="cls-12" transform="translate(-690.428 -149.936)"/>
        <path id="Path_65" d="M1320.021 350.9h-1.121v1.817z" class="cls-12" transform="translate(-715.088 -149.936)"/>
        <path id="Path_66" d="M1250.115 381.013V350.9H1235v36.337h11.287z" class="cls-12" transform="translate(-663.621 -149.936)"/>
        <path id="Path_67" d="M1335.038 393l-12.138 20.062h5.76l6.378-10.592z" class="cls-12" transform="translate(-717.542 -175.762)"/>
        <path id="Path_68" d="M1255.835 526.2H1250l-15 24.817v3.9h3.518z" class="cls-12" transform="translate(-663.621 -257.472)"/>
        <path id="Path_69" d="M1341.8 554.921h10.63l16.235-26.789-.5-1.933h-26.325v28.721z" class="cls-12" transform="translate(-729.136 -257.472)"/>
        <path id="Path_70" d="M1351.519 604h-9.819v16.2z" class="cls-12" transform="translate(-729.075 -305.198)"/>
        <path id="Path_71" d="M1341.8 470.782v6.34h25.977l-7.461-28.721h-4.561z" class="cls-12" transform="translate(-729.136 -209.747)"/>
        <path id="Path_72" d="M1403.62 570.441l-4.91-18.941-11.21 18.941z" class="cls-12" transform="translate(-757.17 -272.992)"/>
        <path id="Path_73" d="M1281.737 477.06l15.656-26.015V448.3h-4.136l-17.357 28.721h5.837z" class="cls-12" transform="translate(-688.71 -209.685)"/>
        <path id="Path_74" d="M1283.1 554.921h18.709V526.2H1301z" class="cls-12" transform="translate(-693.127 -257.472)"/>
        <path id="Path_75" d="M1272.3 604h-19.56L1235 632.489h33.824l3.479-5.721z" class="cls-12" transform="translate(-663.621 -305.198)"/>
        <path id="Path_76" d="M1235 604v4.523l2.745-4.523z" class="cls-12" transform="translate(-663.621 -305.198)"/>
        <path id="Path_77" d="M1235 448.4v17.163l10.476-17.163z" class="cls-12" transform="translate(-663.621 -209.747)"/>
        <path id="Path_78" d="M1341.8 632.489h37.3V616.1l-3.131-12.1h-17.279z" class="cls-12" transform="translate(-729.136 -305.198)"/>
        <path id="Path_79" d="M1359 384.588l5.566-9.277-1.7-6.61-3.866 6.377z" class="cls-12" transform="translate(-739.687 -160.855)"/>
        <path id="Path_80" d="M1383.4 438.827l-1-3.827-2.4 3.827z" class="cls-12" transform="translate(-752.57 -201.527)"/>
        <path id="Path_81" d="M1359 364.259l3.866-6.378-1.779-6.881h-2.049v13.259z" class="cls-12" transform="translate(-739.687 -149.998)"/>
        <path id="Path_82" d="M1359 364.259l3.866-6.378-1.779-6.881h-2.049v13.259z" class="cls-13" transform="translate(-739.687 -149.998)"/>
        <path id="Path_83" d="M1268.267 448.4h-22.691l-10.476 17.163v11.6h15.81z" class="cls-12" transform="translate(-663.682 -209.747)"/>
        <path id="Path_84" d="M1268.267 448.4h-22.691l-10.476 17.163v11.6h15.81z" class="cls-13" transform="translate(-663.682 -209.747)"/>
        <path id="Path_85" d="M1264.3 435.024h3.788V428.8z" class="cls-12" transform="translate(-681.594 -197.723)"/>
        <path id="Path_86" d="M1264.3 435.024h3.788V428.8z" class="cls-13" transform="translate(-681.594 -197.723)"/>
        <path id="Path_87" d="M1318.9 387.237h1.585l12.138-20.062V350.9h-12.6l-1.121 1.817z" class="cls-12" transform="translate(-715.088 -149.936)"/>
        <path id="Path_88" d="M1318.9 387.237h1.585l12.138-20.062V350.9h-12.6l-1.121 1.817z" class="cls-13" transform="translate(-715.088 -149.936)"/>
        <path id="Path_89" d="M1235 526.2v24.817l15-24.817z" class="cls-12" transform="translate(-663.621 -257.472)"/>
        <path id="Path_90" d="M1235 526.2v24.817l15-24.817z" class="cls-13" transform="translate(-663.621 -257.472)"/>
        <path id="Path_91" d="M1278.8 385.62v9.161h13.723V363.2z" class="cls-12" transform="translate(-690.489 -157.482)"/>
        <path id="Path_92" d="M1278.8 385.62v9.161h13.723V363.2z" class="cls-13" transform="translate(-690.489 -157.482)"/>
        <path id="Path_93" d="M1234.939 615.8l-.039 24.005.039-.039z" class="cls-6" transform="translate(-663.559 -312.437)"/>
        <path id="Path_94" d="M1234.939 615.8l-.039 24.005.039-.039z" class="cls-13" transform="translate(-663.559 -312.437)"/>
        <path id="Path_95" d="M1237.745 604l-2.745 4.523v23.967l17.743-28.49z" class="cls-12" transform="translate(-663.621 -305.198)"/>
        <path id="Path_96" d="M1237.745 604l-2.745 4.523v23.967l17.743-28.49z" class="cls-13" transform="translate(-663.621 -305.198)"/>
        <path id="Path_97" d="M1306.656 481.415V455.4L1291 481.415z" class="cls-12" transform="translate(-697.973 -214.041)"/>
        <path id="Path_98" d="M1306.656 481.415V455.4L1291 481.415z" class="cls-13" transform="translate(-697.973 -214.041)"/>
        <path id="Path_99" d="M1261.479 526.2l-17.279 28.721h15.037l17.9-28.721z" class="cls-12" transform="translate(-669.264 -257.472)"/>
        <path id="Path_100" d="M1261.479 526.2l-17.279 28.721h15.037l17.9-28.721z" class="cls-13" transform="translate(-669.264 -257.472)"/>
        <path id="Path_101" d="M1337.9 428.092h6.378V417.5z" class="cls-12" transform="translate(-726.744 -190.791)"/>
        <path id="Path_102" d="M1337.9 428.092h6.378V417.5z" class="cls-13" transform="translate(-726.744 -190.791)"/>
        <path id="Path_103" d="M1355.755 448.4H1341.8v22.382z" class="cls-12" transform="translate(-729.136 -209.747)"/>
        <path id="Path_104" d="M1355.755 448.4H1341.8v22.382z" class="cls-13" transform="translate(-729.136 -209.747)"/>
        <path id="Path_105" d="M1359 408.646h8.118l2.4-3.827-4.948-19.019-5.57 9.277v13.568z" class="cls-12" transform="translate(-739.687 -171.345)"/>
        <path id="Path_106" d="M1359 408.646h8.118l2.4-3.827-4.948-19.019-5.57 9.277v13.568z" class="cls-13" transform="translate(-739.687 -171.345)"/>
        <path id="Path_107" d="M1322.539 677.639l-.039.039 3.518-.039v-.039h-3.479z" class="cls-6" transform="translate(-717.297 -350.348)"/>
        <path id="Path_108" d="M1322.539 677.639l-.039.039 3.518-.039v-.039h-3.479z" class="cls-13" transform="translate(-717.297 -350.348)"/>
        <path id="Path_109" d="M1341.8 632.489L1358.654 604h-7.035l-9.819 16.2z" class="cls-12" transform="translate(-729.136 -305.198)"/>
        <path id="Path_110" d="M1341.8 632.489L1358.654 604h-7.035l-9.819 16.2z" class="cls-13" transform="translate(-729.136 -305.198)"/>
        <path id="Path_111" d="M1325.979 662.9l-3.479 5.721h3.479z" class="cls-12" transform="translate(-717.297 -341.33)"/>
        <path id="Path_112" d="M1325.979 662.9l-3.479 5.721h3.479z" class="cls-13" transform="translate(-717.297 -341.33)"/>
        <path id="Path_113" d="M1376.174 557.989l11.21-18.941-2.049-7.847-16.235 26.788z" class="cls-12" transform="translate(-745.883 -260.54)"/>
        <path id="Path_114" d="M1376.174 557.989l11.21-18.941-2.049-7.847-16.235 26.788z" class="cls-13" transform="translate(-745.883 -260.54)"/>
        <path id="Path_115" d="M1280.234 444.9v.657h-1.817v-.657h-13.684v.657h-1.817v-.657h-13.723v.657h-1.817v-.657H1230.6v1.353h39v-.653h3.981v.657h18.519l-.348-1.353h-11.519z" class="cls-6" transform="translate(-660.922 -207.6)"/>
        <path id="Path_116" d="M1253.136 524.053h16.464V522.7h-39v1.353h22.536z" class="cls-6" transform="translate(-660.922 -255.325)"/>
        <path id="Path_117" d="M1341.8 524.053h26.325l-.348-1.353H1341.8z" class="cls-6" transform="translate(-729.136 -255.325)"/>
        <path id="Path_118" d="M1250.105 601.853h19.56V600.5H1230.7v1.353h19.405z" class="cls-6" transform="translate(-660.983 -303.051)"/>
        <path id="Path_119" d="M1352.33 600.5h-10.63v1.353h34.133l-.348-1.353h-23.155z" class="cls-6" transform="translate(-729.075 -303.051)"/>
        <path id="Path_120" d="M1335.482 536v-89.3h-3.982v92.04h3.982z" class="cls-6" transform="translate(-722.818 -208.704)"/>
        <path id="Path_121" d="M1354.3 376.645v11.249h1.817V350.9h-1.817v25.745z" class="cls-6" transform="translate(-736.804 -149.936)"/>
        <path id="Path_122" d="M1314.2 387.237v.657h1.817V350.9h-1.817v36.337z" class="cls-6" transform="translate(-712.205 -149.936)"/>
        <path id="Path_123" d="M1274.1 387.237v.657h1.817V350.9h-1.817v36.337z" class="cls-6" transform="translate(-687.606 -149.936)"/>
        <path id="Path_124" d="M1214.941 331.78a1.833 1.833 0 0 0-.5.928 1.609 1.609 0 0 0 .116 1.044 1.788 1.788 0 0 0 .7.812 1.916 1.916 0 0 0 1.005.309h55.123l-.967-3.672h-54.2a1.877 1.877 0 0 0-1.276.58z" class="cls-6" transform="translate(-650.984 -137.851)"/>
        <path id="Path_125" d="M1214.069 687.9h-4.369a1.8 1.8 0 0 0-.657.116 1.28 1.28 0 0 0-.541.387 1.741 1.741 0 0 0-.387.541 1.92 1.92 0 0 0 0 1.314 1.621 1.621 0 0 0 .348.541 2.747 2.747 0 0 0 .541.387 1.806 1.806 0 0 0 .657.116h86.86l.928-3.363h-83.381z" class="cls-6" transform="translate(-647.058 -356.666)"/>
        <path id="Path_126" d="M1223.739 684.7h-.039v1.276h.039z" class="cls-11" transform="translate(-656.689 -354.703)"/>
        <path id="Path_127" d="M1265.371 684.6h-41.632v1.276h-.039v.039h83.381l.348-1.314h-42.058z" class="cls-6" transform="translate(-656.689 -354.641)"/>
        <path id="Path_128" d="M1265.371 684.6h-41.632v1.276h-.039v.039h83.381l.348-1.314h-42.058z" class="cls-11" transform="translate(-656.689 -354.641)"/>
        <path id="Path_129" d="M1264.041 1045.1l-15.076-14.341-8.852 7.306-11.6-11.867-18.513 18.596 36.878.155z" class="cls-7" transform="translate(-648.285 -564.193)"/>
        <path id="Path_130" d="M1261.78 1046.2l-15.076-14.341-8.852 7.306-11.635-11.867-18.516 18.594 36.878.116z" class="cls-11" transform="translate(-646.874 -564.868)"/>
        <path id="Path_131" d="M876.293 756.5H666.7c-9.548 0-17.318 6.958-17.318 15.54v11.713h-.039v77.853a18.589 18.589 0 0 1-8.388 15.269l-3.555 2.435h222.039c9.316 0 16.854-6.765 16.854-15.115v-35.177h.039v-54.775a18.589 18.589 0 0 1 8.388-15.269l3.556-2.474z" class="cls-6" transform="translate(-297.028 -398.748)"/>
        <path id="Path_132" d="M876.293 756.5H666.7c-9.548 0-17.318 6.958-17.318 15.54v11.713h-.039v77.853a18.589 18.589 0 0 1-8.388 15.269l-3.555 2.435h222.039c9.316 0 16.854-6.765 16.854-15.115v-35.177h.039v-54.775a18.589 18.589 0 0 1 8.388-15.269l3.556-2.474z" class="cls-6" transform="translate(-297.028 -398.748)"/>
        <path id="Path_133" d="M1104.918 836.664h-72.364c-.039 0-.116-.039-.116-.077-.039-.039-.039-.077-.039-.155a.232.232 0 0 1 .039-.155c.039-.039.077-.077.116-.077h72.364c.039 0 .116.039.116.077.039.039.039.077.039.155 0 .039-.039.116-.039.155s-.077.077-.116.077z" class="cls-14" transform="translate(-539.337 -447.639)"/>
        <path id="Path_134" d="M961.059 836.787h-36.143c-.039 0-.039-.039-.077-.039-.039-.039-.039-.039-.039-.077v-.155c0-.039.039-.039.039-.077.039-.039.039-.039.077-.039h36.143c.039 0 .116.039.116.077.039.039.039.077.039.155a.233.233 0 0 1-.039.155c0-.039-.038 0-.116 0z" class="cls-14" transform="translate(-473.331 -447.762)"/>
        <path id="Path_135" d="M996.257 783.087h-72.441c-.039 0-.039-.039-.077-.039-.039-.039-.039-.039-.039-.077v-.155c0-.039.039-.039.039-.077.039-.039.039-.039.077-.039h72.441c.039 0 .116.039.116.077s.039.077.039.155c0 .039-.039.116-.039.155 0-.039-.039 0-.116 0z" class="cls-14" transform="translate(-472.656 -414.82)"/>
        <path id="Path_136" d="M1161.2 783.087h-36.143c-.039 0-.039-.039-.077-.039-.039-.039-.039-.039-.039-.077a.135.135 0 0 0-.039-.077c0-.039 0-.077.039-.077 0-.039.039-.039.039-.077.039-.039.039-.039.077-.039h36.143c.039 0 .116.039.116.077.039.039.039.077.039.155a.232.232 0 0 1-.039.155c-.002-.04-.041-.001-.116-.001z" class="cls-14" transform="translate(-596.081 -414.82)"/>
        <path id="Path_137" d="M1038.562 809.987H925.455c-.039 0-.039-.039-.077-.039-.039-.039-.039-.039-.039-.077a.135.135 0 0 0-.039-.077s0-.077.039-.077c0-.039.039-.039.039-.077.039-.039.039-.039.077-.039h113.107c.039 0 .116.039.116.077.039.039.039.077.039.155 0 .039-.039.116-.039.155a.072.072 0 0 0-.116 0z" class="cls-14" transform="translate(-473.638 -431.322)"/>
        <path id="Path_138" d="M1039.184 863.687H926.116c-.039 0-.039-.039-.077-.039-.039-.039-.039-.039-.039-.077v-.155c0-.039.039-.039.039-.077.039-.039.039-.039.077-.039h113.107c.039 0 .116.039.116.077.039.039.039.077.039.155a.233.233 0 0 1-.039.155c-.039-.039-.077 0-.155 0z" class="cls-14" transform="translate(-474.067 -464.263)"/>
        <path id="Path_139" d="M1102.557 892.364h-72.364a.293.293 0 0 1-.155-.077c-.039-.039-.039-.077-.039-.155a.233.233 0 0 1 .039-.155.2.2 0 0 1 .155-.077h72.441c.039 0 .039.039.077.039.039.039.039.039.039.077v.155c0 .039-.039.039-.039.077-.039.039-.039.039-.077.039 0 .077-.039.077-.077.077z" class="cls-14" transform="translate(-537.865 -481.808)"/>
        <path id="Path_140" d="M958.921 892.364h-36.066c-.039 0-.116-.039-.116-.077-.039-.039-.039-.077-.039-.155a.232.232 0 0 1 .039-.155c.039-.039.077-.077.116-.077H959c.039 0 .039.039.077.039.039.039.039.039.039.077a.135.135 0 0 0 .039.077c0 .039 0 .077-.039.077 0 .039-.039.039-.039.077-.039.039-.039.039-.077.039-.039.077-.039.077-.077.077z" class="cls-14" transform="translate(-472.043 -481.808)"/>
        <path id="Path_141" d="M1103.6 972.964h-72.364a.233.233 0 0 1 0-.464h72.364a.233.233 0 0 1 0 .464z" class="cls-14" transform="translate(-538.479 -531.251)"/>
        <path id="Path_142" d="M959.9 972.964h-36.068a.294.294 0 0 1-.155-.077.233.233 0 0 1 .155-.387H959.9a.293.293 0 0 1 .155.077.233.233 0 0 1-.155.387z" class="cls-14" transform="translate(-472.595 -531.251)"/>
        <path id="Path_143" d="M995.219 919.164h-72.364c-.039 0-.116-.039-.116-.077-.039-.039-.039-.077-.039-.155s0-.116.039-.155.077-.077.116-.077h72.364c.039 0 .116.039.116.077.039.039.039.077.039.155s-.039.116-.039.155c0 .077-.077.077-.116.077z" class="cls-14" transform="translate(-472.043 -498.248)"/>
        <path id="Path_144" d="M1160.22 919.164h-36.066c-.039 0-.116-.039-.116-.077-.039-.039-.039-.077-.039-.155 0-.039.039-.116.039-.155.039-.039.077-.077.116-.077h36.146c.039 0 .039.039.077.039.039.039.039.039.039.077v.155c0 .039-.039.039-.039.077-.039.039-.039.039-.077.039 0 .077-.039.116-.077.077z" class="cls-14" transform="translate(-595.529 -498.248)"/>
        <path id="Path_145" d="M1037.462 946.064h-113.03a.293.293 0 0 1-.155-.077.2.2 0 0 1-.077-.155.293.293 0 0 1 .077-.155.2.2 0 0 1 .155-.077h113.03a.293.293 0 0 1 .155.077.2.2 0 0 1 .077.155.273.273 0 0 1-.232.232z" class="cls-14" transform="translate(-472.963 -514.75)"/>
        <path id="Path_146" d="M1038.023 999.764H925.032a.293.293 0 0 1-.155-.077.2.2 0 0 1-.077-.155.293.293 0 0 1 .077-.155.2.2 0 0 1 .155-.077h113.03a.273.273 0 0 1 .232.232.294.294 0 0 1-.077.155.213.213 0 0 1-.193.077z" class="cls-14" transform="translate(-473.331 -547.691)"/>
        <path id="Path_147" d="M1266.124 756.5h2.319a10.822 10.822 0 0 1 10.824 10.824v112.024H1255.3V767.324a10.822 10.822 0 0 1 10.824-10.824z" class="cls-7" transform="translate(-676.074 -398.748)"/>
        <path id="Path_148" d="M674.662 499.5H368.044a5.65 5.65 0 0 0-5.644 5.644v207.968a5.626 5.626 0 0 0 5.644 5.644H674.7a5.626 5.626 0 0 0 5.644-5.644V505.105a5.676 5.676 0 0 0-5.682-5.605z" class="cls-15" transform="translate(-128.332 -241.094)"/>
        <path id="Path_149" d="M329.1 1024.7h344.424v12.293a7.009 7.009 0 0 1-2.01 4.871 6.939 6.939 0 0 1-4.871 2.01H335.981a6.863 6.863 0 0 1-6.881-6.881z" class="cls-15" transform="translate(-107.904 -563.273)"/>
        <path id="Path_150" d="M685.57 522H385.6v185.162h299.97z" class="cls-16" transform="translate(-142.564 -254.896)"/>
        <path id="Path_151" d="M680.306 1026.393c0 .116-71.165.193-158.953.193s-158.953-.077-158.953-.193 71.165-.193 158.953-.193 158.953.116 158.953.193z" class="cls-14" transform="translate(-128.332 -564.193)"/>
        <path id="Path_152" d="M686.5 1024.7h68.189l-3.634 6.224H690.25z" class="cls-14" transform="translate(-327.148 -563.273)"/>
        <path id="Path_153" d="M718.993 407.5H497.418a17.128 17.128 0 0 0-17.318 16.893V637h226.91V426.828a20.725 20.725 0 0 1 8.427-16.622z" class="cls-6" transform="translate(-200.534 -184.657)"/>
        <path id="Path_154" d="M1077.824 407.5h2.319a10.729 10.729 0 0 1 7.654 3.17 10.959 10.959 0 0 1 3.17 7.654V443.1H1067v-24.776a10.822 10.822 0 0 1 10.824-10.824z" class="cls-7" transform="translate(-560.563 -184.657)"/>
        <path id="Path_155" d="M1266.124 756.5h2.319a10.822 10.822 0 0 1 10.824 10.824v112.024H1255.3V767.324a10.822 10.822 0 0 1 10.824-10.824z" class="cls-11" transform="translate(-676.074 -398.748)"/>
        <g id="Group_50" class="cls-17" transform="translate(506.437 223.23)">
            <path id="Path_156" d="M1077.824 408.5h2.319a10.822 10.822 0 0 1 10.824 10.824V444.1H1067v-24.776a10.822 10.822 0 0 1 10.824-10.824z" class="cls-11" transform="translate(-1067 -408.5)"/>
        </g>
        <path id="Path_157" d="M713.7 438.364H610.255c-.039 0-.116-.039-.116-.077-.039-.039-.039-.077-.039-.155a.233.233 0 0 1 .039-.155c.039-.039.077-.077.116-.077h103.481c.039 0 .039.039.077.039.039.039.039.039.039.077v.155c0 .039-.039.039-.039.077-.039.039-.039.039-.077.039 0 .077-.036.077-.036.077z" class="cls-14" transform="translate(-280.281 -203.306)"/>
        <path id="Path_158" d="M949.522 438.487h-51.606c-.039 0-.039-.039-.077-.039-.039-.039-.039-.039-.039-.077v-.155c0-.039.039-.039.039-.077.039-.039.039-.039.077-.039h51.606c.039 0 .116.039.116.077.039.039.039.077.039.155a.233.233 0 0 1-.039.155c0-.039-.077 0-.116 0z" class="cls-14" transform="translate(-456.768 -203.428)"/>
        <path id="Path_159" d="M771.787 497.664H609.355c-.039 0-.116-.039-.116-.077-.039-.039-.039-.077-.039-.155a.233.233 0 0 1 .039-.155c.039-.039.077-.077.116-.077h162.432c.039 0 .116.039.116.077.039.039.039.077.039.155 0 .039-.039.116-.039.155-.039.039-.077.077-.116.077z" class="cls-14" transform="translate(-279.729 -239.683)"/>
        <path id="Path_160" d="M715.432 739.064H516.355c-.039 0-.116-.039-.116-.077-.039-.039-.039-.077-.039-.155a.233.233 0 0 1 .039-.155c.039-.039.077-.077.116-.077h199.077c.039 0 .116.039.116.077.039.039.039.077.039.155a.233.233 0 0 1-.039.155c-.039.039-.077.077-.116.077z" class="cls-14" transform="translate(-222.679 -387.767)"/>
        <path id="Path_161" d="M715.432 764.564H516.355c-.039 0-.116-.039-.116-.077-.039-.039-.039-.077-.039-.155a.232.232 0 0 1 .039-.155c.039-.039.077-.077.116-.077h199.077c.039 0 .116.039.116.077.039.039.039.077.039.155a.233.233 0 0 1-.039.155c-.039.039-.077.077-.116.077z" class="cls-14" transform="translate(-222.679 -403.41)"/>
        <path id="Path_162" d="M717.51 967.264H518.432a.293.293 0 0 1-.155-.077.2.2 0 0 1-.077-.155.293.293 0 0 1 .077-.155.2.2 0 0 1 .155-.077H717.51a.273.273 0 0 1 .232.232.273.273 0 0 1-.232.232z" class="cls-14" transform="translate(-223.906 -527.755)"/>
        <path id="Path_163" d="M867.2 464.487H763.716c-.039 0-.039-.039-.077-.039-.039-.039-.039-.039-.039-.077v-.155c0-.039.039-.039.039-.077.039-.039.039-.039.077-.039H867.2c.039 0 .116.039.116.077.039.039.039.077.039.155a.232.232 0 0 1-.039.155z" class="cls-14" transform="translate(-374.444 -219.378)"/>
        <path id="Path_164" d="M661.783 464.364h-51.528c-.039 0-.116-.039-.116-.077-.039-.039-.039-.077-.039-.155a.233.233 0 0 1 .039-.155c.039-.039.077-.077.116-.077h51.605c.039 0 .039.039.077.039.039.039.039.039.039.077a.135.135 0 0 0 .039.077c0 .039 0 .077-.039.077 0 .039-.039.039-.039.077-.039.039-.039.039-.077.039 0 .078-.038.114-.077.078z" class="cls-14" transform="translate(-280.281 -219.255)"/>
        <g id="Group_51" class="cls-17" transform="translate(416.756 273.096)">
            <path id="Path_165" d="M837.9 537.655L835 591.5l79.4 5.8-3.247-59.8z" class="cls-11" transform="translate(-835 -537.5)"/>
        </g>
        <path id="Path_166" d="M905.475 528.2l-71.475.464.387 57.133 71.436-.464z" class="cls-18" transform="translate(-417.631 -258.699)"/>
        <path id="Path_167" d="M907.111 537.6l-66.411.425.309 49.943 66.411-.425z" class="cls-3" transform="translate(-421.741 -264.466)"/>
        <g id="Group_52" class="cls-19" transform="translate(418.959 273.134)">
            <path id="Path_168" d="M907.111 537.6l-66.411.425.309 49.943 66.411-.425z" class="cls-20" transform="translate(-840.7 -537.6)"/>
        </g>
        <g id="Group_53" class="cls-19" transform="translate(419.268 292.192)">
            <path id="Path_169" d="M907.95 617.786L884.563 586.9 870.3 606.383l-9.819-10.321-18.981 22.111z" class="cls-10" transform="translate(-841.5 -586.9)"/>
        </g>
        <g id="Group_54" class="cls-19" transform="translate(441.805 283.298)">
            <path id="Path_170" d="M899.8 569.113a5.153 5.153 0 0 0 3.247 4.793 5.047 5.047 0 0 0 3.015.271 5.236 5.236 0 0 0 4.1-4.1 5.382 5.382 0 0 0-.309-3.015 4.952 4.952 0 0 0-1.933-2.319 4.9 4.9 0 0 0-2.9-.85 5.211 5.211 0 0 0-3.672 1.546 4.991 4.991 0 0 0-1.546 3.672z" class="cls-10" transform="translate(-899.8 -563.892)"/>
        </g>
        <g id="Group_55" class="cls-17" transform="translate(290.042 374.993)">
            <path id="Path_171" d="M583.7 801.255l2.9 53.848-79.4 5.8 3.247-59.8z" class="cls-11" transform="translate(-507.2 -801.1)"/>
        </g>
        <path id="Path_172" d="M528.187 791.9l-.387 57.133 71.436.464.387-57.133z" class="cls-18" transform="translate(-229.795 -420.464)"/>
        <path id="Path_173" d="M534.609 801.3l-.309 49.943 66.411.425.309-49.943z" class="cls-3" transform="translate(-233.782 -426.23)"/>
        <g id="Group_56" class="cls-19" transform="translate(300.518 375.07)">
            <path id="Path_174" d="M534.609 801.3l-.309 49.943 66.411.425.309-49.943z" class="cls-20" transform="translate(-534.3 -801.3)"/>
        </g>
        <g id="Group_57" class="cls-19" transform="translate(300.479 394.089)">
            <path id="Path_175" d="M534.2 881.386l23.387-30.886 14.264 19.521 9.819-10.321 18.98 22.111z" class="cls-10" transform="translate(-534.2 -850.5)"/>
        </g>
        <g id="Group_58" class="cls-19" transform="translate(333.94 385.159)">
            <path id="Path_176" d="M631.214 832.657a5.153 5.153 0 0 1-3.247 4.793 5.047 5.047 0 0 1-3.015.271 5.214 5.214 0 0 1-4.1-4.136 5.382 5.382 0 0 1 .309-3.015 4.951 4.951 0 0 1 1.933-2.319 5.2 5.2 0 0 1 4.909-.425 5.545 5.545 0 0 1 1.7 1.16 6.182 6.182 0 0 1 1.121 1.7 4.85 4.85 0 0 1 .387 1.971z" class="cls-10" transform="translate(-620.762 -827.4)"/>
        </g>
        <path id="Path_177" d="M715.367 707.7H515.4v6.417h199.967z" class="cls-7" transform="translate(-222.188 -368.812)"/>
        <path id="Path_178" d="M629.2 528.3H516.6v6.417h112.6z" class="cls-7" transform="translate(-222.924 -258.761)"/>
        <path id="Path_179" d="M693.8 569.664h-72.368a.293.293 0 0 1-.155-.077.233.233 0 0 1 .155-.387H693.8a.293.293 0 0 1 .155.077.193.193 0 0 1 0 .309.293.293 0 0 1-.155.077z" class="cls-14" transform="translate(-287.09 -283.85)"/>
        <path id="Path_180" d="M550 569.664h-36.068a.293.293 0 0 1-.155-.077.233.233 0 0 1 .155-.387H550a.293.293 0 0 1 .155.077.233.233 0 0 1-.155.387z" class="cls-14" transform="translate(-221.146 -283.85)"/>
        <path id="Path_181" d="M695.018 650.164h-72.363c-.039 0-.116-.039-.116-.077-.039-.039-.039-.077-.039-.155s0-.116.039-.155.077-.077.116-.077h72.364c.039 0 .116.039.116.077.039.039.039.077.039.155s0 .116-.039.155c-.039.077-.077.077-.116.077z" class="cls-14" transform="translate(-287.888 -333.232)"/>
        <path id="Path_182" d="M551.159 650.287h-36.143c-.039 0-.039-.039-.077-.039-.039-.039-.039-.039-.039-.077v-.155c0-.039.039-.039.039-.077.039-.039.039-.039.077-.039h36.143c.039 0 .116.039.116.077.039.039.039.077.039.155a.233.233 0 0 1-.039.155z" class="cls-14" transform="translate(-221.882 -333.355)"/>
        <path id="Path_183" d="M586.357 596.587h-72.441c-.039 0-.039-.039-.077-.039-.039-.039-.039-.039-.039-.077v-.155c0-.039.039-.039.039-.077.039-.039.039-.039.077-.039h72.518c.039 0 .039.039.077.039.039.039.039.039.039.077v.155c0 .039-.039.039-.039.077-.039.039-.039.039-.077.039z" class="cls-14" transform="translate(-221.207 -300.413)"/>
        <path id="Path_184" d="M751.459 596.587h-36.143c-.039 0-.039-.039-.077-.039-.039-.039-.039-.039-.039-.077v-.155c0-.039.039-.039.039-.077.039-.039.039-.039.077-.039h36.143c.039 0 .116.039.116.077s.039.077.039.155a.232.232 0 0 1-.039.155c-.039.039-.077 0-.116 0z" class="cls-14" transform="translate(-344.754 -300.413)"/>
        <path id="Path_185" d="M628.723 623.487H515.616c-.039 0-.039-.039-.077-.039-.039-.039-.039-.039-.039-.077v-.155c0-.039.039-.039.039-.077.039-.039.039-.039.077-.039h113.107c.039 0 .116.039.116.077s.039.077.039.155a.233.233 0 0 1-.039.155c0-.039-.077 0-.116 0z" class="cls-14" transform="translate(-222.25 -316.915)"/>
        <path id="Path_186" d="M629.323 677.187H516.216c-.039 0-.039-.039-.077-.039-.039-.039-.039-.039-.039-.077v-.155a.135.135 0 0 0 .039-.077c.039-.039.039-.039.077-.039h113.107c.039 0 .116.039.116.077.039.039.039.077.039.155a.233.233 0 0 1-.039.155c0-.039-.077 0-.116 0z" class="cls-14" transform="translate(-222.618 -349.857)"/>
        <path id="Path_187" d="M741.4 797.217H854V790.8H741.4z" class="cls-7" transform="translate(-360.826 -419.789)"/>
        <path id="Path_188" d="M812.418 832.164h-72.363c-.039 0-.116-.039-.116-.077-.039-.039-.039-.077-.039-.155a.232.232 0 0 1 .039-.155c.039-.039.077-.077.116-.077h72.364c.039 0 .116.039.116.077.039.039.039.077.039.155a.232.232 0 0 1-.039.155c0 .039-.077.077-.116.077z" class="cls-14" transform="translate(-359.906 -444.879)"/>
        <path id="Path_189" d="M977.421 832.164h-36.066c-.039 0-.116-.039-.116-.077-.039-.039-.039-.077-.039-.155a.232.232 0 0 1 .039-.155c.039-.039.077-.077.116-.077H977.5c.039 0 .039.039.077.039.039.039.039.039.039.077a.135.135 0 0 0 .039.077s0 .077-.039.077c0 .039-.039.039-.039.077-.039.039-.039.039-.077.039 0 .077-.039.077-.077.077z" class="cls-14" transform="translate(-483.392 -444.879)"/>
        <path id="Path_190" d="M811.2 912.664h-72.368a.293.293 0 0 1-.155-.077.233.233 0 0 1 .155-.387H811.2a.293.293 0 0 1 .155.077.193.193 0 0 1 0 .309.154.154 0 0 1-.155.077z" class="cls-14" transform="translate(-359.108 -494.261)"/>
        <path id="Path_191" d="M976.2 912.664h-36.068a.293.293 0 0 1-.155-.077.233.233 0 0 1 .155-.387H976.2a.293.293 0 0 1 .155.077.193.193 0 0 1 0 .309.154.154 0 0 1-.155.077z" class="cls-14" transform="translate(-482.594 -494.261)"/>
        <path id="Path_192" d="M919.818 858.964h-72.363c-.039 0-.116-.039-.116-.077-.039-.039-.039-.077-.039-.155a.232.232 0 0 1 .039-.155c.039-.039.077-.077.116-.077H919.9c.039 0 .039.039.077.039.039.039.039.039.039.077a.135.135 0 0 0 .039.077s0 .077-.039.077c0 .039-.039.039-.039.077-.039.039-.039.039-.077.039 0 .077-.039.077-.077.077z" class="cls-14" transform="translate(-425.79 -461.319)"/>
        <path id="Path_193" d="M776.121 858.964h-36.066c-.039 0-.116-.039-.116-.077-.039-.039-.039-.077-.039-.155a.232.232 0 0 1 .039-.155c.039-.039.077-.077.116-.077H776.2c.039 0 .039.039.077.039.039.039.039.039.039.077v.155c0 .039-.039.039-.039.077-.039.039-.039.039-.077.039-.039.077-.039.077-.077.077z" class="cls-14" transform="translate(-359.906 -461.319)"/>
        <path id="Path_194" d="M853.523 885.864H740.532a.293.293 0 0 1-.155-.077.2.2 0 0 1-.077-.155.293.293 0 0 1 .077-.155.2.2 0 0 1 .155-.077h113.03a.273.273 0 0 1 .232.232.294.294 0 0 1-.077.155c-.077.039-.116.077-.193.077z" class="cls-14" transform="translate(-360.151 -477.82)"/>
        <path id="Path_195" d="M852.962 939.564h-113.03a.293.293 0 0 1-.155-.077.233.233 0 0 1 .155-.387h113.03a.293.293 0 0 1 .155.077.193.193 0 0 1 0 .309.293.293 0 0 1-.155.077z" class="cls-14" transform="translate(-359.783 -510.762)"/>
        <path id="Path_196" d="M525.539 437.7H546.8l.039 7.113h-1.005c-.348-2.551-1.276-4.252-2.861-5.18a8.651 8.651 0 0 0-3.982-.812v18.593a3.52 3.52 0 0 0 .7 2.59 4.337 4.337 0 0 0 2.822.657v.889h-12.6v-.889a4.082 4.082 0 0 0 2.745-.657 3.705 3.705 0 0 0 .7-2.59v-18.593a8.894 8.894 0 0 0-3.982.812c-1.7.928-2.629 2.629-2.861 5.18H525.5z" class="cls-3" transform="translate(-228.384 -203.183)"/>
        <path id="Path_197" d="M1317.4 979.8h23.967v25.977a10.729 10.729 0 0 1-3.17 7.654 10.96 10.96 0 0 1-7.654 3.17h-2.319a10.822 10.822 0 0 1-10.824-10.824z" class="cls-6" transform="translate(-714.168 -535.729)"/>
        <path id="Path_198" d="M631.605 1075.66H153.78a.811.811 0 0 1-.425-.155.582.582 0 0 1-.155-.425.811.811 0 0 1 .155-.425.581.581 0 0 1 .425-.155h477.825a.81.81 0 0 1 .425.155.581.581 0 0 1 .155.425.811.811 0 0 1-.155.425.581.581 0 0 1-.425.155z" class="cls-7" transform="translate(0 -593.822)"/>
        <path id="Path_199" d="M1168.213 915.7l6.8 11.21a6.032 6.032 0 0 1 .85 4.6 6.166 6.166 0 0 1-2.59 3.9l-26.016 16.042-4.561-5.876 17.086-16.661-3.479-5.141z" class="cls-21" transform="translate(-607 -496.408)"/>
        <path id="Path_200" d="M979.832 915.7l-6.8 11.21a6.187 6.187 0 0 0 1.74 8.466l26.789 16.042 4.561-5.876-17.859-16.661 3.479-5.141z" class="cls-21" transform="translate(-502.309 -496.408)"/>
        <path id="Path_201" d="M1042.147 847.157l-18.555-.657-16.2 3.286a9.872 9.872 0 0 0-3.634 1.469 9.762 9.762 0 0 0-2.706 2.783L990 873.714l12.525 8.427 6.03-8.814v37.226h48.474v-37.226l5.451 8.388 12.756-8.04-10.785-19.715a10.223 10.223 0 0 0-2.822-2.938 9.128 9.128 0 0 0-3.788-1.469l-15.694-2.4" class="cls-3" transform="translate(-513.328 -453.958)"/>
        <path id="Path_202" d="M1076.355 802.237l-.155 16.854a1.7 1.7 0 0 0 .348 1.044l.155.271c4.02 6.185 13.8 4.214 16.931 1.005a1.973 1.973 0 0 0 .58-.812 1.768 1.768 0 0 0 .077-1.005L1091.469 801z" class="cls-21" transform="translate(-566.206 -426.046)"/>
        <path id="Path_203" d="M1088.653 773.419s3.092 20.333-8.156 21.183c-10.94.812-11.287-19.753-11.287-19.753l-.309-5.876 14.109-2.474 3.556 1.855z" class="cls-21" transform="translate(-561.728 -404.882)"/>
        <path id="Path_204" d="M1095.2 825.905l-.812-5.605c-1.005 3.595-3.131 6.61-6.8 7.19h.039l-.773.116c-2.938.232-5.373-1.121-7.19-4.02a.534.534 0 0 0-.155-.116.349.349 0 0 0-.193.039c-.039 0-.039.039-.077.077 0 .039-.039.039-.039.077v.077c0 .039 0 .077.039.077 1.933 3.092 4.523 4.484 7.654 4.291a8.169 8.169 0 0 0 1.933-.387 8.647 8.647 0 0 0 6.378-1.817z" class="cls-22" transform="translate(-568.047 -437.886)"/>
        <path id="Path_205" d="M1113.1 771.619s3.556-2.358 5.257 1.7c1.43 3.4-.966 7.151-.966 7.151l-2.049-.232a1.433 1.433 0 0 1-1.546-1.276z" class="cls-15" transform="translate(-588.842 -407.605)"/>
        <path id="Path_206" d="M1083.691 755.926a4.531 4.531 0 0 1-4.368 4.987l-11.056.928a1.6 1.6 0 0 0-1.121.58 1.971 1.971 0 0 0-.425 1.2l.193 3.518a.833.833 0 0 1-.193.657.917.917 0 0 1-.58.348l-.7.077-.734.928c-4.368-1.044-6.146-13.414 1.856-15.888a3.3 3.3 0 0 0 1.971-1.7c1.16-2.4 5.914-3.054 8.35-.348a2.8 2.8 0 0 0 .85.657 2.564 2.564 0 0 0 1.082.193c2.826-.079 4.72 1.737 4.875 3.863z" class="cls-15" transform="translate(-556.882 -394.425)"/>
        <path id="Path_207" d="M1066.4 798.562a1.8 1.8 0 0 0-.348-.889 1.647 1.647 0 0 0-.773-.58 1.856 1.856 0 0 0-1.855.271l-.039.039c-1.933 1.662-.7 6.842 3.518 6.378z" class="cls-21" transform="translate(-557.801 -423.569)"/>
        <path id="Path_208" d="M1122.283 793.571a1.836 1.836 0 0 0-.966-.271 1.622 1.622 0 0 0-.928.271 1.894 1.894 0 0 0-.657.7 1.942 1.942 0 0 0-.232.928l.232 4.948c4.213-.16 4.639-5.223 2.551-6.576z" class="cls-21" transform="translate(-592.768 -421.323)"/>
        <path id="Path_209" d="M1071.508 797.609a.54.54 0 0 1-.116.348.49.49 0 0 1-.348.155.52.52 0 0 1-.348-.077c-.077-.077-.193-.193-.193-.309l-.5-3.324 1.392.039z" class="cls-15" transform="translate(-562.403 -421.997)"/>
        <path id="Path_210" d="M1119.307 794.109a.539.539 0 0 1-.116.348.377.377 0 0 1-.348.155.519.519 0 0 1-.348-.077c-.077-.077-.193-.193-.193-.309l-.5-3.324 1.392.039z" class="cls-15" transform="translate(-591.725 -419.85)"/>
        <path id="Path_211" d="M1085.405 808.007a.888.888 0 0 0 .541-.155 1.21 1.21 0 0 0 .348-.425.994.994 0 0 0 .039-.58.993.993 0 0 0-.773-.773 1.473 1.473 0 0 0-.58.039.777.777 0 0 0-.425.348.887.887 0 0 0-.155.541 1.111 1.111 0 0 0 .271.7.966.966 0 0 0 .734.309z" class="cls-15" transform="translate(-571.236 -429.149)"/>
        <path id="Path_212" d="M1086.893 809.587h.077a.135.135 0 0 1 .077-.039c.039-.039.039-.039.039-.077v-.155c0-.039-.039-.039-.039-.077s-.039-.039-.077-.039h-.155c-.039 0-.039.039-.077.039s-.039.039-.039.077v.155c0 .039.039.039.039.077.039.039.039.039.077.039z" class="cls-23" transform="translate(-572.647 -431.076)"/>
        <path id="Path_213" d="M1104.905 806.607a1.257 1.257 0 0 0 .541-.155 1.21 1.21 0 0 0 .348-.425.994.994 0 0 0 .039-.58.924.924 0 0 0-.271-.5.808.808 0 0 0-.5-.271 1.474 1.474 0 0 0-.58.039.945.945 0 0 0-.425.348.888.888 0 0 0-.155.541 1.376 1.376 0 0 0 .077.387.6.6 0 0 0 .232.309.841.841 0 0 0 .309.193.653.653 0 0 0 .386.116z" class="cls-15" transform="translate(-583.199 -428.29)"/>
        <path id="Path_214" d="M1106.171 808.064a.142.142 0 0 0 .116-.039c.039-.039.077-.077.077-.116s.039-.077 0-.116c0-.039-.039-.077-.077-.116s-.077-.039-.116-.077h-.116c-.039 0-.077.039-.116.077a.142.142 0 0 0-.039.116.2.2 0 0 0 .077.155c.077.116.116.116.193.116z" class="cls-23" transform="translate(-584.425 -430.095)"/>
        <g id="Group_59" class="cls-8" transform="translate(517.284 379.283)">
            <path id="Path_215" d="M1096.2 814.442l.773-.077a.273.273 0 0 0 .193-.464c-.077-.039-.116-.077-.193-.077l-.773.077a.581.581 0 0 1-.425-.155.537.537 0 0 1-.193-.387.581.581 0 0 1 .155-.425.537.537 0 0 1 .386-.193.273.273 0 0 0 .193-.464c-.077-.039-.116-.077-.193-.077a.78.78 0 0 0-.425.116 1.2 1.2 0 0 0-.348.271c-.077.116-.155.271-.232.387a.952.952 0 0 0-.039.464 1.389 1.389 0 0 0 .077.425.841.841 0 0 0 .271.348.8.8 0 0 0 .387.232z" class="cls-9" transform="translate(-1095.059 -812.2)"/>
        </g>
        <path id="Path_216" d="M1161.605 1057.944l-9.625-1.044-.58 9.161 9.393.309z" class="cls-21" transform="translate(-612.337 -583.026)"/>
        <path id="Path_217" d="M1155.2 1066.268l2.629-8.968.193 4.523a.759.759 0 0 0 .348.5 1.31 1.31 0 0 0 .58.232l4.561.232-.386 3.788-7.925-.309z" class="cls-22" transform="translate(-614.668 -583.271)"/>
        <path id="Path_218" d="M1177.518 1073.5a7.057 7.057 0 0 1-4.484-2.01l-1.43-1.392a6.849 6.849 0 0 0-3.093-1.74 4.585 4.585 0 0 1-2.358-1.624 4.145 4.145 0 0 1-.773-2.745v-.193a4.495 4.495 0 0 1 4.755-4.214l8.195.541z" class="cls-3" transform="translate(-620.905 -584.668)"/>
        <path id="Path_219" d="M1174.808 1071.964a.155.155 0 0 1-.232-.077 4.745 4.745 0 0 1-.5-2.513 5.521 5.521 0 0 1 .812-2.435.165.165 0 0 1 .232.232 4.229 4.229 0 0 0-.773 2.242 4.716 4.716 0 0 0 .464 2.319l.039.039v.039c.039.077 0 .116-.039.155z" class="cls-23" transform="translate(-626.235 -589.16)"/>
        <path id="Path_220" d="M1177.725 1073.464a.186.186 0 0 1-.232-.077 5 5 0 0 1 .309-4.948.193.193 0 0 1 .232 0c.039.039.039.077.077.116s0 .077-.039.116a4.229 4.229 0 0 0-.773 2.242 4.716 4.716 0 0 0 .464 2.319.038.038 0 0 0 .039.039v.039c-.002.077-.038.154-.077.154z" class="cls-23" transform="translate(-628.032 -590.08)"/>
        <path id="Path_221" d="M1180.825 1075.264a.186.186 0 0 1-.232-.077 5 5 0 0 1 .309-4.948.165.165 0 0 1 .232.232 4.229 4.229 0 0 0-.773 2.242 4.716 4.716 0 0 0 .464 2.319l.039.039v.039c0 .039 0 .039-.039.077.039.039.039.039 0 .077z" class="cls-23" transform="translate(-629.934 -591.184)"/>
        <path id="Path_222" d="M1197.982 1074.391l-1.082-.077.85-13.414 1.082.077a.551.551 0 0 1 .232.077c.077.039.116.077.193.116.039.077.077.116.116.193a.49.49 0 0 1 .039.232l-.773 12.215a.549.549 0 0 1-.077.232.386.386 0 0 1-.155.193c-.077.039-.116.077-.193.116a.491.491 0 0 1-.232.04z" class="cls-14" transform="translate(-640.248 -585.479)"/>
        <path id="Path_223" d="M1014.544 1059.925l9.355-.5-.773-9.123-9.625 1.237z" class="cls-21" transform="translate(-527.743 -578.977)"/>
        <path id="Path_224" d="M1022.19 1059.907l-6.726.387-.464-3.788 4.561-.309a.978.978 0 0 0 .58-.232.958.958 0 0 0 .309-.541l1.662-4.523.077 9.007z" class="cls-22" transform="translate(-528.664 -579.345)"/>
        <path id="Path_225" d="M992.4 1054.179l8.156-.7a4.607 4.607 0 0 1 3.286 1.044 4.477 4.477 0 0 1 1.585 3.054v.193a4.219 4.219 0 0 1-.734 2.783 4.076 4.076 0 0 1-2.319 1.662 6.871 6.871 0 0 0-3.054 1.817l-1.392 1.43a7.157 7.157 0 0 1-4.445 2.087z" class="cls-3" transform="translate(-514.8 -580.923)"/>
        <path id="Path_226" d="M1014.987 1065.648v-.039a.038.038 0 0 1 .039-.039 4.509 4.509 0 0 0 .425-2.358 4.633 4.633 0 0 0-.812-2.242l-.039-.039v-.155a.038.038 0 0 1 .039-.039l.039-.039h.155a.038.038 0 0 1 .039.039 4.5 4.5 0 0 1 .85 2.4 4.716 4.716 0 0 1-.464 2.513.155.155 0 0 1-.232.077.135.135 0 0 1-.039-.077z" class="cls-23" transform="translate(-528.418 -585.357)"/>
        <path id="Path_227" d="M1012.087 1067.248v-.039a.038.038 0 0 1 .039-.039 4.509 4.509 0 0 0 .425-2.358 4.633 4.633 0 0 0-.812-2.242l-.039-.039v-.155a.038.038 0 0 1 .039-.039l.039-.039h.155a.038.038 0 0 1 .039.039 4.5 4.5 0 0 1 .85 2.4 4.717 4.717 0 0 1-.464 2.513.155.155 0 0 1-.232.077c-.039-.002-.039-.04-.039-.079z" class="cls-23" transform="translate(-526.639 -586.338)"/>
        <path id="Path_228" d="M1009.087 1069.048c0-.039 0-.077.039-.077a4.509 4.509 0 0 0 .425-2.358 4.633 4.633 0 0 0-.812-2.242l-.039-.039v-.155l.039-.039.039-.039h.155l.039.039a4.9 4.9 0 0 1 .889 2.4 4.715 4.715 0 0 1-.464 2.513.155.155 0 0 1-.232.077.083.083 0 0 1-.077-.077z" class="cls-23" transform="translate(-524.799 -587.443)"/>
        <path id="Path_229" d="M989.144 1068.15l-1.044-12.215a.49.49 0 0 1 .039-.232.845.845 0 0 1 .116-.193.385.385 0 0 1 .193-.155c.077-.039.155-.039.232-.077l1.082-.077 1.121 13.375-1.082.077a.581.581 0 0 1-.425-.155c-.116-.039-.193-.193-.232-.348z" class="cls-14" transform="translate(-512.162 -581.983)"/>
        <path id="Path_230" d="M1090.151 797.9l-4.252.232-.58.039-3.711.232h-.039l-4.755.271a1.435 1.435 0 0 0-.541.155 1.209 1.209 0 0 0-.425.348 1.449 1.449 0 0 0-.271.464 1.317 1.317 0 0 0-.077.541l.077 1.082a3.718 3.718 0 0 0 1.276 2.59 3.922 3.922 0 0 0 2.745.966 3.838 3.838 0 0 0 2.629-1.237 3.6 3.6 0 0 0 .966-2.745l-.077-1.082a1.113 1.113 0 0 0-.348-.812l1.469-.077a1.354 1.354 0 0 0-.232.85l.077 1.082a3.654 3.654 0 0 0 1.276 2.629 3.922 3.922 0 0 0 2.745.966 3.654 3.654 0 0 0 2.629-1.276 3.6 3.6 0 0 0 .966-2.745l-.077-1.082a1.234 1.234 0 0 0-.116-.541 1.94 1.94 0 0 0-.309-.464 3.221 3.221 0 0 0-.464-.309 1.5 1.5 0 0 0-.58-.077zm-7.576 1.817l.077 1.082a3.3 3.3 0 0 1-.155 1.237 3.133 3.133 0 0 1-.657 1.082 3.325 3.325 0 0 1-1.005.773 2.79 2.79 0 0 1-1.237.309 3.3 3.3 0 0 1-1.237-.155 3.752 3.752 0 0 1-1.082-.618 3.325 3.325 0 0 1-.773-1.005 2.79 2.79 0 0 1-.309-1.237l-.077-1.082a1.168 1.168 0 0 1 .193-.618.789.789 0 0 1 .58-.309l4.755-.271h.039a.755.755 0 0 1 .309.039 1.158 1.158 0 0 1 .309.155.693.693 0 0 1 .193.271.705.705 0 0 1 .077.348zm8.62.618a3.322 3.322 0 0 1-.812 2.358 3.118 3.118 0 0 1-2.242 1.082 3.172 3.172 0 0 1-2.319-.812 3.118 3.118 0 0 1-1.082-2.242l-.077-1.082a1.168 1.168 0 0 1 .193-.618.789.789 0 0 1 .58-.309l.541-.039 4.252-.232a1.168 1.168 0 0 1 .618.193 1.064 1.064 0 0 1 .309.58z" class="cls-15" transform="translate(-565.777 -424.144)"/>
        <path id="Path_231" d="M1091.555 821.448l4.755-.348h.077c.039 0 .039.039.077.039.039.039.039.039.039.077v.077a2.691 2.691 0 0 1-.889 1.353 2.742 2.742 0 0 1-1.508.618 2.814 2.814 0 0 1-1.585-.348 2.716 2.716 0 0 1-1.082-1.2v-.039c0-.039-.039-.039-.039-.077v-.077c0-.039.039-.039.039-.077z" class="cls-23" transform="translate(-575.53 -438.376)"/>
        <g id="Group_60" class="cls-8" transform="translate(505.858 374.751)">
            <path id="Path_232" d="M1067.2 803.423a.3.3 0 0 1-.193-.077.849.849 0 0 1-.116-.193l-.077-.618a1.841 1.841 0 0 0-.541-1.314c-.077-.039-.116-.077-.193-.116a.491.491 0 0 0-.232-.039.491.491 0 0 1-.232-.039.213.213 0 0 1-.116-.193.491.491 0 0 1 .039-.232.213.213 0 0 1 .193-.116 1.2 1.2 0 0 1 .889.232 2.139 2.139 0 0 1 .734 1.7l.077.58a.549.549 0 0 1-.077.232.273.273 0 0 1-.155.193z" class="cls-9" transform="translate(-1065.5 -800.475)"/>
        </g>
        <g id="Group_61" class="cls-8" transform="translate(527.923 373.098)">
            <path id="Path_233" d="M1122.82 799.254a.212.212 0 0 0 .193-.116.3.3 0 0 0 .077-.193v-.58a1.42 1.42 0 0 1 .039-.7 2.053 2.053 0 0 1 .309-.657.386.386 0 0 1 .193-.155.559.559 0 0 1 .271-.077.3.3 0 0 0 .193-.077.846.846 0 0 0 .116-.193.3.3 0 0 0-.077-.193.846.846 0 0 0-.193-.116 1.029 1.029 0 0 0-.464.116 1.388 1.388 0 0 0-.387.271 2.285 2.285 0 0 0-.5 1.817v.58a.218.218 0 0 0 .23.273z" class="cls-9" transform="translate(-1122.581 -796.2)"/>
        </g>
        <path id="Path_234" d="M1152.208 965.711l-.425.271 26.441-16.313a6.481 6.481 0 0 0 2.59-3.9 6.39 6.39 0 0 0-.85-4.6l-1.316-2.169s3.44 5.876-4.793 11.056l-23.155 14.727z" class="cls-22" transform="translate(-611.908 -510.701)"/>
        <path id="Path_235" d="M977.59 951.707c-5.567-2.706-4.1-9.007-4.1-9.007l-.464.812a6.188 6.188 0 0 0 1.74 8.466l26.866 16.042-.618-.309 1.856-1.276z" class="cls-22" transform="translate(-502.309 -512.971)"/>
        <path id="Path_236" d="M981.3 1002.3l21.918 2.474h48.474l20.8-2.474-3.634 20.72-78.742 1.16-8.079-21.261" class="cls-16" transform="translate(-507.991 -549.532)"/>
        <path id="Path_237" d="M981.3 1002.3l21.918 2.474h48.474l20.8-2.474-3.634 20.72-78.742 1.16-8.079-21.261" class="cls-9" transform="translate(-507.991 -549.532)"/>
        <path id="Path_238" d="M1053.9 1015.207l36.8-10.553a68.926 68.926 0 0 1 11.519-2.242 9.2 9.2 0 0 1 6.03 1.43 11.192 11.192 0 0 1 4.948 7l.116.58a9.509 9.509 0 0 1-1.237 7.151 10 10 0 0 1-2.9 2.938 9.741 9.741 0 0 1-3.866 1.43l-73.794 9.857-1.817-11.79z" class="cls-16" transform="translate(-537.681 -549.567)"/>
        <path id="Path_239" d="M1148.223 1024.693a9.655 9.655 0 0 0 1.237-7.151l-.116-.58a11.142 11.142 0 0 0-2.2-4.561s2.319 12.486-10.746 13.955l-10.9 1.778a17.555 17.555 0 0 1-8-.734l-23.58-7.229-5.412 1.546 14.805 12.6 38.192-5.3a9.188 9.188 0 0 0 3.866-1.43 9.739 9.739 0 0 0 2.86-2.9z" class="cls-10" transform="translate(-573.752 -555.727)"/>
        <path id="Path_240" d="M1006.078 1014.984l-36.491-11.558a64.818 64.818 0 0 0-11.481-2.551 9.477 9.477 0 0 0-6.069 1.237 11.176 11.176 0 0 0-5.141 6.881l-.155.58a9.458 9.458 0 0 0 1.044 7.151 9.153 9.153 0 0 0 2.822 3.015 9.353 9.353 0 0 0 3.827 1.508l74.412 11.79 1.237-11.674z" class="cls-16" transform="translate(-486.614 -548.609)"/>
        <path id="Path_241" d="M1032.377 1065.3l16.468 3.518 6.224-.7-22.769-3.518z" class="cls-10" transform="translate(-539.276 -587.749)"/>
        <path id="Path_242" d="M1029.193 1042.487l-64.13-12.061c-1.546-.309-3.092-.541-4.639-.773-12.834-1.855-13.182-10.553-13.182-10.553a6.234 6.234 0 0 0-.348 1.121l-.155.58a9.623 9.623 0 0 0 1.005 7.151 9.152 9.152 0 0 0 2.822 3.015 9.354 9.354 0 0 0 3.827 1.508l74.413 11.79z" class="cls-10" transform="translate(-486.612 -559.838)"/>
        <path id="Path_243" d="M1082.294 854.145a11.655 11.655 0 0 1-3.479-.5 13.062 13.062 0 0 1-4.445-2.4 12.526 12.526 0 0 1-3.17-3.943l1.971-.5a10.35 10.35 0 0 0 6.185 4.793 10.938 10.938 0 0 0 7.19-.387c1.778-.7 4.214-1.74 4.793-3.827l1.933.309c-.657 2.319-2.938 4.291-6.069 5.489a13.379 13.379 0 0 1-4.909.966z" class="cls-23" transform="translate(-563.139 -454.142)"/>
        <path id="Path_244" d="M1158.677 911.115l-2.551-3.015-.425 17.859h3.092z" class="cls-10" transform="translate(-614.975 -491.746)"/>
        <path id="Path_245" d="M1034.858 978.605l-2.358-27.562a1.19 1.19 0 0 1 .039-.387 1.566 1.566 0 0 1 .193-.348.6.6 0 0 1 .309-.232 1.374 1.374 0 0 1 .386-.077h50.794a1.144 1.144 0 0 1 .386.077 1.813 1.813 0 0 1 .348.232 1.566 1.566 0 0 1 .193.348 1.452 1.452 0 0 1 .039.425l-3.363 27.871z" class="cls-15" transform="translate(-539.399 -517.449)"/>
        <path id="Path_246" d="M1098.79 984.063a3.407 3.407 0 0 1-.58 1.894 3.355 3.355 0 0 1-1.508 1.237 3.31 3.31 0 0 1-1.933.193 3.482 3.482 0 0 1-1.74-.928 3.629 3.629 0 0 1-.928-1.74 3.279 3.279 0 0 1 .193-1.933 3.4 3.4 0 0 1 1.237-1.508 3.2 3.2 0 0 1 1.855-.58 2.8 2.8 0 0 1 1.276.271 2.992 2.992 0 0 1 1.082.734 4.121 4.121 0 0 1 .734 1.082 2.492 2.492 0 0 1 .312 1.278z" class="cls-5" transform="translate(-575.923 -536.281)"/>
        <path id="Path_247" d="M1064.35 923.1l-5.45-3.943-5.489 3.866-5.1-4.368-5.8 3.479-4.909-4.948.58-.58 4.484 4.484 5.721-3.44 5.064 4.329 5.451-3.866 5.412 3.9 5.064-4.329 5.8 3.324 4.484-4.909 6.533 2.513-.309.734-6.03-2.319-4.561 4.987-5.876-3.363z" class="cls-23" transform="translate(-542.527 -496.653)"/>
    </g>
    <text id="The_key_to_impactful_scalable_email_campaigns_is_with_the_badger._Treat_your_email_campaigns_like_Royalty_not_Chimps._" fill="#541388" font-family="Poppins-Bold, Poppins" font-size="20px" font-weight="700" transform="translate(50 184)">
        <tspan x="0" y="21">The key to impactful scalable email </tspan><tspan x="0" y="51">campaigns is with the badger. </tspan><tspan x="0" y="81">Treat your email campaigns like Royalty not </tspan><tspan x="0" y="111">Chimps.</tspan>
    </text>
    <g id="Logo_Dark" transform="translate(35.642 61.35)">
        <g id="Group_3" transform="translate(104.385 56.449)">
            <g id="Group_1" transform="translate(.434 .434)">
                <path id="Path_1" d="M337.947 183.173c-6.392 0-10.847-4.165-10.847-10.095 0-4.368 1.62-7.665 4.83-9.835a20.763 20.763 0 0 1 12.12-3.442 29.022 29.022 0 0 1 5.93.665l.4.087.087-.4a8.485 8.485 0 0 0 .087-1.678c0-1.88-.868-4.107-4.946-4.107-3.066 0-6.45 1.735-7.839 3.992-3.3-.145-6.248-3.471-6.248-7.087a8.477 8.477 0 0 1 4.628-7.636c2.95-1.707 7.289-2.632 12.467-2.632 9.892 0 15.764 4.773 15.764 12.756a41.487 41.487 0 0 1-1.562 9.082 40.243 40.243 0 0 0-1.591 10.066c0 3.269.636 5.669 1.938 7.318a10.181 10.181 0 0 1-7.347 2.6c-3.326 0-5.814-1.186-7.4-3.5l-.318-.463-.376.434c-2.257 2.602-5.467 3.875-9.777 3.875zm6.942-17.876c-3.9 0-5.7 2.083-5.7 4.021 0 1.012.492 2.2 2.777 2.2 2.835 0 5.091-1.707 6.74-5.091l.231-.463-.521-.145a12.415 12.415 0 0 0-3.527-.519z" transform="translate(-327.1 -141)"/>
            </g>
            <g id="Group_2">
                <path id="Path_2" d="M347.583 140.368c4.859 0 8.822 1.186 11.454 3.384a11.163 11.163 0 0 1 3.876 8.938 37.594 37.594 0 0 1-1.562 8.967 41.464 41.464 0 0 0-1.62 10.153c0 3.182.578 5.554 1.793 7.26a9.993 9.993 0 0 1-6.768 2.227c-3.182 0-5.554-1.1-7.058-3.3l-.636-.926-.723.839c-2.2 2.488-5.293 3.7-9.458 3.7a10.967 10.967 0 0 1-7.434-2.661 9.213 9.213 0 0 1-2.979-7c0-4.223 1.562-7.4 4.628-9.487a20.4 20.4 0 0 1 11.888-3.355 28.246 28.246 0 0 1 5.843.665l.81.174.2-.81a7.556 7.556 0 0 0 .116-1.793c0-1.707-.694-4.541-5.38-4.541a10.233 10.233 0 0 0-8.07 3.992c-2.95-.289-5.611-3.384-5.611-6.624a8 8 0 0 1 4.425-7.26c2.893-1.649 7.144-2.545 12.264-2.545m-6.681 30.519c3.731 0 5.959-2.892 7.144-5.322l.463-.955-1.012-.26a13.327 13.327 0 0 0-3.645-.521c-4.223 0-6.132 2.314-6.132 4.454-.029.752.289 2.6 3.182 2.6m6.682-31.384c-10.442 0-17.557 3.587-17.557 10.7 0 3.76 3.182 7.521 6.942 7.521 1.244-2.256 4.6-4.021 7.607-4.021s4.512 1.244 4.512 3.673a7.534 7.534 0 0 1-.087 1.591 31.9 31.9 0 0 0-6.016-.665 21.356 21.356 0 0 0-12.38 3.5c-3.355 2.256-5 5.669-5 10.182 0 6.363 4.917 10.529 11.281 10.529 4.426 0 7.781-1.331 10.124-4.021 1.678 2.43 4.252 3.673 7.781 3.673a10.484 10.484 0 0 0 7.925-3.008c-1.417-1.591-2.083-4.021-2.083-7.347a40.052 40.052 0 0 1 1.591-9.95 39.915 39.915 0 0 0 1.591-9.2c-.029-7.983-5.785-13.161-16.227-13.161zm-6.682 30.52c-1.591 0-2.343-.579-2.343-1.764 0-1.909 1.909-3.587 5.264-3.587a13.5 13.5 0 0 1 3.413.492c-1.591 3.269-3.76 4.859-6.335 4.859z" class="cls-23" transform="translate(-325.6 -139.5)"/>
            </g>
        </g>
        <g id="Group_6" transform="translate(142.74 39.73)">
            <g id="Group_4" transform="translate(.405 .463)">
                <path id="Path_3" d="M469.2 141.815c-6.016 0-9.6-3.731-9.6-10.008 0-2.227.694-5.727 2.169-10.991 1.5-5.351 2.2-8.822 2.2-10.9a12.059 12.059 0 0 0-1.62-6.8 11.422 11.422 0 0 1 8.475-3.124c5.785 0 9.082 3.326 9.082 9.082 0 2.256-.81 6.219-2.314 11.4-1.533 5.525-2.285 9.285-2.285 11.483 0 3.153.665 5.409 2.083 6.855a11.3 11.3 0 0 1-8.19 3.003zm3.413-43.532c-4.31 0-7.434-2.835-7.434-6.74 0-4.715 4.281-8.244 9.921-8.244 4.368 0 7.434 2.719 7.434 6.595.032 4.774-4.248 8.389-9.918 8.389z" transform="translate(-459.6 -83.3)"/>
            </g>
            <g id="Group_5">
                <path id="Path_4" d="M474.138 82.568a7.435 7.435 0 0 1 5.12 1.764 5.787 5.787 0 0 1 1.851 4.368c0 4.541-4.078 7.983-9.487 7.983a7.415 7.415 0 0 1-4.946-1.735 5.883 5.883 0 0 1-2.025-4.57c0-4.426 4.078-7.81 9.487-7.81M469.8 99.286a8.654 8.654 0 0 1 6.421 2.285 8.865 8.865 0 0 1 2.227 6.363c0 1.562-.4 4.773-2.314 11.31-1.533 5.554-2.285 9.343-2.285 11.6 0 3.037.607 5.293 1.909 6.826a11.062 11.062 0 0 1-7.549 2.574 8.828 8.828 0 0 1-6.884-2.661 10.088 10.088 0 0 1-2.285-6.942c0-2.14.694-5.7 2.14-10.876 1.5-5.409 2.2-8.909 2.2-11.02a12.929 12.929 0 0 0-1.5-6.74 11.13 11.13 0 0 1 7.925-2.719m4.333-17.586c-5.93 0-10.355 3.76-10.355 8.677 0 4.339 3.587 7.173 7.868 7.173 5.93 0 10.355-3.847 10.355-8.851 0-3.992-3.095-7-7.868-7zM469.8 98.419c-3.847 0-6.855 1.157-9.025 3.5a11.467 11.467 0 0 1 1.764 6.855c0 2.083-.752 5.669-2.169 10.789-1.417 5.091-2.169 8.764-2.169 11.107 0 6.1 3.355 10.442 10.037 10.442A11.61 11.61 0 0 0 477 137.7c-1.5-1.331-2.256-3.587-2.256-6.855 0-2.169.752-5.93 2.256-11.368 1.591-5.438 2.343-9.285 2.343-11.541-.029-5.93-3.442-9.516-9.545-9.516z" class="cls-23" transform="translate(-458.2 -81.7)"/>
            </g>
        </g>
        <g id="Group_9" transform="translate(162.929 39.73)">
            <g id="Group_7" transform="translate(.405 .434)">
                <path id="Path_5" d="M539 141.744c-6.016 0-9.6-3.731-9.6-10.008 0-2.95 1.215-8.677 3.587-17.008 2.4-8.5 3.616-15.157 3.616-19.756a15.019 15.019 0 0 0-2.372-8.649 11.422 11.422 0 0 1 8.475-3.124c6.537 0 10.442 4.541 10.442 12.177 0 4.078-1.273 10.587-3.731 19.264-2.516 9.14-3.7 14.549-3.7 17.095 0 3.182.723 5.554 2.112 7.058-1.624 1.968-4.574 2.951-8.829 2.951z" transform="translate(-529.4 -83.2)"/>
            </g>
            <g id="Group_8">
                <path id="Path_6" d="M541.681 82.568a9.173 9.173 0 0 1 7.376 3.095c1.706 2.025 2.632 5.033 2.632 8.649 0 4.049-1.244 10.5-3.731 19.148-2.574 9.285-3.7 14.578-3.7 17.181 0 3.095.665 5.467 1.967 7.058-1.533 1.649-4.368 2.516-8.215 2.516a8.828 8.828 0 0 1-6.884-2.661 10.088 10.088 0 0 1-2.285-6.942c0-2.892 1.186-8.591 3.558-16.892 2.4-8.533 3.616-15.215 3.616-19.871a15.443 15.443 0 0 0-2.256-8.591 11.3 11.3 0 0 1 7.925-2.69m0-.868c-3.847 0-6.855 1.157-9.025 3.5a14.219 14.219 0 0 1 2.517 8.677c0 4.512-1.157 11.02-3.587 19.64-2.43 8.533-3.587 14.2-3.587 17.124 0 6.1 3.355 10.442 10.037 10.442 4.6 0 7.781-1.157 9.372-3.413q-2.256-2.126-2.256-7.029c0-2.6 1.244-8.186 3.674-16.95 2.516-8.764 3.76-15.3 3.76-19.38-.029-7.752-3.963-12.611-10.9-12.611z" class="cls-23" transform="translate(-528 -81.7)"/>
            </g>
        </g>
        <g id="Group_12" transform="translate(184.941 39.73)">
            <g id="Group_10" transform="translate(.463 .463)">
                <path id="Path_7" d="M621.551 142.162c-4.715 0-8.677-1.388-11.454-4.049-2.892-2.748-4.4-6.855-4.4-11.8 0-2.314.984-7.116 2.921-14.26 2.025-7.289 3.008-12.843 3.008-16.979a14.647 14.647 0 0 0-2.372-8.62 13.093 13.093 0 0 1 8.764-3.153c5.409 0 9.516 4.368 9.516 10.182a22.372 22.372 0 0 1-3.037 10.326l-.231.434 1.128.463.2-.2c2.719-2.632 5.64-3.963 8.735-3.963 7.144 0 11.425 5.438 11.425 14.52 0 8.359-2.343 15.041-6.971 19.843a23.313 23.313 0 0 1-17.232 7.256zm6.335-31.094c-1.359 0-3.384.868-5.235 5.033a23.4 23.4 0 0 0-2.141 9.632c0 3.326.984 5.033 2.95 5.033 1.822 0 3.471-1.62 4.975-4.917a23.556 23.556 0 0 0 2.2-9.719c.027-1.273.027-5.062-2.75-5.062z" transform="translate(-605.7 -83.3)"/>
            </g>
            <g id="Group_11">
                <path id="Path_8" d="M616.885 82.568c5.178 0 9.082 4.194 9.082 9.748a22.3 22.3 0 0 1-2.979 10.124l-.463.868.9.347.405.174.521.2.4-.4c2.661-2.6 5.409-3.847 8.417-3.847a9.921 9.921 0 0 1 7.868 3.413c2.054 2.43 3.124 6.1 3.124 10.673 0 8.244-2.314 14.81-6.855 19.524a22.69 22.69 0 0 1-16.921 7.173c-4.6 0-8.475-1.359-11.165-3.934-2.806-2.661-4.281-6.653-4.281-11.512 0-2.285.984-7.058 2.893-14.144 2.054-7.318 3.037-12.929 3.037-17.124a15.235 15.235 0 0 0-2.227-8.533 13.341 13.341 0 0 1 8.244-2.748m5.438 47.466c2.025 0 3.789-1.707 5.38-5.178a23.963 23.963 0 0 0 2.256-9.892c0-3.616-1.07-5.467-3.211-5.467-2.169 0-4.078 1.764-5.64 5.264a23.755 23.755 0 0 0-2.17 9.806c.029 4.541 1.851 5.467 3.384 5.467M616.885 81.7a13.614 13.614 0 0 0-9.372 3.5 14.042 14.042 0 0 1 2.516 8.677c0 4.107-1.012 9.69-3.008 16.892-1.909 7.116-2.921 11.946-2.921 14.376 0 10.615 6.682 16.285 16.285 16.285a23.556 23.556 0 0 0 17.557-7.43c4.773-4.917 7.115-11.686 7.115-20.132 0-10.037-4.917-14.954-11.859-14.954-3.182 0-6.19 1.331-9.025 4.107l-.405-.174a22.918 22.918 0 0 0 3.095-10.529c-.029-6.335-4.628-10.615-9.979-10.615zm5.438 47.466c-1.678 0-2.516-1.5-2.516-4.6a22.9 22.9 0 0 1 2.083-9.43c1.417-3.182 3.095-4.773 4.859-4.773 1.591 0 2.343 1.5 2.343 4.6a23.122 23.122 0 0 1-2.169 9.516c-1.417 3.095-2.921 4.686-4.6 4.686z" class="cls-23" transform="translate(-604.1 -81.7)"/>
            </g>
        </g>
        <g id="Group_15" transform="translate(224.51 56.449)">
            <g id="Group_13" transform="translate(.434 .434)">
                <path id="Path_9" d="M753.247 183.173c-6.392 0-10.847-4.165-10.847-10.095 0-4.368 1.62-7.665 4.83-9.835a20.764 20.764 0 0 1 12.12-3.442 29.021 29.021 0 0 1 5.93.665l.405.087.087-.4a8.485 8.485 0 0 0 .087-1.678c0-1.88-.868-4.107-4.946-4.107-3.066 0-6.45 1.735-7.839 3.992-3.3-.145-6.248-3.471-6.248-7.087a8.477 8.477 0 0 1 4.628-7.636c2.95-1.707 7.289-2.632 12.467-2.632 9.892 0 15.764 4.773 15.764 12.756a41.489 41.489 0 0 1-1.562 9.082 40.243 40.243 0 0 0-1.591 10.066c0 3.269.636 5.669 1.938 7.318a10.181 10.181 0 0 1-7.347 2.6c-3.326 0-5.814-1.186-7.4-3.5l-.318-.434-.376.434c-2.29 2.573-5.472 3.846-9.782 3.846zm6.942-17.876c-3.9 0-5.7 2.083-5.7 4.021 0 1.012.492 2.2 2.777 2.2 2.835 0 5.091-1.707 6.74-5.091l.231-.463-.521-.145a12.558 12.558 0 0 0-3.527-.519z" transform="translate(-742.4 -141)"/>
            </g>
            <g id="Group_14">
                <path id="Path_10" d="M762.883 140.368c4.859 0 8.822 1.186 11.454 3.384a11.163 11.163 0 0 1 3.876 8.938 37.593 37.593 0 0 1-1.562 8.967 41.462 41.462 0 0 0-1.62 10.153c0 3.182.579 5.554 1.793 7.26a9.993 9.993 0 0 1-6.768 2.227c-3.182 0-5.554-1.1-7.058-3.3l-.636-.926-.723.839c-2.2 2.488-5.293 3.7-9.458 3.7a10.968 10.968 0 0 1-7.434-2.661 9.213 9.213 0 0 1-2.979-7c0-4.223 1.562-7.4 4.628-9.487a20.4 20.4 0 0 1 11.888-3.355 28.245 28.245 0 0 1 5.843.665l.81.174.2-.81a7.56 7.56 0 0 0 .116-1.793c0-1.707-.694-4.541-5.38-4.541a10.233 10.233 0 0 0-8.07 3.992c-2.95-.289-5.611-3.384-5.611-6.624a8 8 0 0 1 4.425-7.26c2.893-1.649 7.145-2.545 12.264-2.545m-6.711 30.516c3.731 0 5.958-2.892 7.144-5.322l.463-.955-1.012-.26a13.326 13.326 0 0 0-3.644-.521c-4.223 0-6.132 2.314-6.132 4.454 0 .752.289 2.6 3.182 2.6m6.711-31.384c-10.442 0-17.557 3.587-17.557 10.7 0 3.76 3.182 7.521 6.942 7.521 1.244-2.256 4.6-4.021 7.607-4.021s4.512 1.244 4.512 3.673a7.539 7.539 0 0 1-.087 1.591 31.9 31.9 0 0 0-6.016-.665 21.355 21.355 0 0 0-12.38 3.5c-3.355 2.256-5 5.669-5 10.182 0 6.363 4.917 10.529 11.281 10.529 4.425 0 7.781-1.331 10.124-4.021 1.678 2.43 4.252 3.673 7.781 3.673a10.485 10.485 0 0 0 7.926-3.008c-1.417-1.591-2.083-4.021-2.083-7.347a40.057 40.057 0 0 1 1.591-9.95 39.913 39.913 0 0 0 1.591-9.2c-.029-7.983-5.785-13.161-16.227-13.161zm-6.711 30.516c-1.591 0-2.343-.579-2.343-1.764 0-1.909 1.909-3.587 5.264-3.587a13.5 13.5 0 0 1 3.413.492c-1.562 3.269-3.731 4.859-6.334 4.859z" class="cls-23" transform="translate(-740.9 -139.5)"/>
            </g>
        </g>
        <g id="Group_18" transform="translate(263.067 39.73)">
            <g id="Group_16" transform="translate(.434 .434)">
                <path id="Path_11" d="M889.381 141.831c-8.706 0-13.681-5.727-13.681-15.706a29.471 29.471 0 0 1 5.93-18.367c3.9-5.206 8.388-7.839 13.363-7.839a10.188 10.188 0 0 1 7.954 3.269l.665.752.087-1.012c.173-1.909.26-3.355.26-4.223 0-4.946-1.07-8.649-3.153-10.991 1.909-3.095 6.306-4.512 9.661-4.512 6.537 0 10.442 4.541 10.442 12.177 0 4.078-1.273 10.587-3.731 19.264-2.516 9.14-3.7 14.549-3.7 17.095 0 3.182.723 5.554 2.112 7.058-1.5 1.822-4.859 2.95-7.289 2.95a8.946 8.946 0 0 1-8.157-4.4l-.289-.492-.376.434a13.227 13.227 0 0 1-10.098 4.543zM898.059 111c-1.359 0-3.384.868-5.235 5.033a23.357 23.357 0 0 0-2.111 9.632c0 3.326.983 5.033 2.95 5.033 1.822 0 3.471-1.62 5-4.917a23.659 23.659 0 0 0 2.2-9.719c-.027-1.276-.027-5.062-2.804-5.062z" transform="translate(-875.7 -83.2)"/>
            </g>
            <g id="Group_17">
                <path id="Path_12" d="M909.373 82.568a9.173 9.173 0 0 1 7.376 3.095c1.707 2.025 2.632 5.033 2.632 8.649 0 4.049-1.244 10.5-3.731 19.148-2.574 9.285-3.7 14.578-3.7 17.181 0 3.095.665 5.467 1.967 7.058a10.45 10.45 0 0 1-6.711 2.516 8.438 8.438 0 0 1-7.781-4.194l-.607-.983-.781.839a12.661 12.661 0 0 1-9.719 4.4c-4.165 0-7.434-1.3-9.719-3.847-2.343-2.632-3.558-6.479-3.558-11.4a29.067 29.067 0 0 1 5.843-18.107c3.818-5.091 8.186-7.665 13.016-7.665a9.733 9.733 0 0 1 7.636 3.124l1.331 1.5.174-2c.174-1.909.26-3.384.26-4.252 0-4.888-1.012-8.591-3.037-11.049 1.446-2 4.744-4.021 9.111-4.021m-16.805 47.466c2.025 0 3.789-1.707 5.38-5.207a23.961 23.961 0 0 0 2.256-9.892c0-3.616-1.07-5.467-3.211-5.467-2.169 0-4.078 1.764-5.64 5.264a23.757 23.757 0 0 0-2.169 9.806c0 4.57 1.851 5.5 3.384 5.5m16.803-48.33c-5.351 0-8.938 2.748-10.182 5 2.169 2.256 3.269 5.93 3.269 10.934 0 .839-.087 2.256-.26 4.165a10.519 10.519 0 0 0-8.273-3.413c-5.091 0-9.69 2.661-13.71 8.012a30.111 30.111 0 0 0-6.017 18.632c0 10.442 5.351 16.14 14.115 16.14a13.5 13.5 0 0 0 10.355-4.686 9.368 9.368 0 0 0 8.533 4.6c2.748 0 6.421-1.331 7.868-3.413q-2.256-2.126-2.256-7.029c0-2.6 1.244-8.186 3.673-16.95 2.516-8.764 3.76-15.3 3.76-19.38-.029-7.752-3.934-12.611-10.876-12.611zm-16.805 47.466c-1.678 0-2.517-1.5-2.517-4.6a22.9 22.9 0 0 1 2.083-9.43c1.417-3.182 3.095-4.773 4.859-4.773 1.591 0 2.343 1.5 2.343 4.6a23.124 23.124 0 0 1-2.169 9.516c-1.417 3.095-2.922 4.686-4.6 4.686z" class="cls-23" transform="translate(-874.2 -81.7)"/>
            </g>
        </g>
        <g id="Group_21" transform="translate(304.98 39.73)">
            <g id="Group_19" transform="translate(.463 .463)">
                <path id="Path_13" d="M1056.914 155.092a4.222 4.222 0 0 0-4.483-3.182 53.855 53.855 0 0 0-10.037 1.273 56.961 56.961 0 0 1-10.413 1.3c-.347 0-.665 0-1.013-.029-7.087-.26-10.268-3.326-10.268-9.95 0-4.541 2.285-8.764 6.8-12.611l.4-.347-.434-.318c-3.384-2.488-5.091-6.1-5.091-10.76a19.411 19.411 0 0 1 6.219-14.491c4.194-4.021 9.458-5.987 16.082-5.987a17.872 17.872 0 0 1 8.417 1.967l.81.4-.173-.868c-.608-3.153-3.211-4.946-7.116-4.946a14.994 14.994 0 0 0-3.471.434 10.377 10.377 0 0 1-.607-3.413 9.664 9.664 0 0 1 3.124-7.2 10.808 10.808 0 0 1 7.463-3.066c6.248 0 10.442 4.021 10.442 10.008a14.951 14.951 0 0 1-5.785 12.12l-.318.26.232.318a14.324 14.324 0 0 1 2.6 8.446c0 6.219-2.025 11.194-6.045 14.81-4.021 3.529-9.429 5.322-16.082 5.322a18.952 18.952 0 0 1-5.467-.723l-.347-.116-.173.318a2.331 2.331 0 0 0-.116.955c0 1.533 1.3 2.6 3.182 2.6a73.517 73.517 0 0 0 12.669-1.388 50.147 50.147 0 0 1 7.839-.955c5.611 0 9.256 3.3 9.256 8.417-.026 4.749-2.745 8.596-8.096 11.402zM1043 109.477c-1.793 0-3.269 1.3-4.4 3.847a17.5 17.5 0 0 0-1.62 7.52c0 3.616 1.186 5.438 3.529 5.438 1.909 0 3.355-1.3 4.339-3.876a21.573 21.573 0 0 0 1.446-7.578c-.024-3.528-1.123-5.351-3.294-5.351z" transform="translate(-1020.7 -83.3)"/>
            </g>
            <g id="Group_20">
                <path id="Path_14" d="M1051.988 82.568c5.987 0 10.008 3.847 10.008 9.574a14.544 14.544 0 0 1-5.611 11.772l-.608.521.463.665a13.924 13.924 0 0 1 2.516 8.186c0 6.19-1.938 10.9-5.9 14.462-3.934 3.471-9.256 5.207-15.793 5.207a18.148 18.148 0 0 1-5.351-.723l-.694-.2-.318.665a2.44 2.44 0 0 0-.174 1.128c0 1.793 1.5 3.037 3.616 3.037a73.885 73.885 0 0 0 12.727-1.388 49.6 49.6 0 0 1 7.752-.955 9.29 9.29 0 0 1 6.595 2.314 7.76 7.76 0 0 1 2.227 5.7c0 4.512-2.43 8.07-7.4 10.789a4.579 4.579 0 0 0-4.715-3.008 54.77 54.77 0 0 0-10.124 1.273 56.348 56.348 0 0 1-10.326 1.3c-.347 0-.665 0-.984-.029-3.616-.145-6.132-1.012-7.723-2.69-1.446-1.5-2.141-3.731-2.141-6.826 0-4.4 2.227-8.533 6.624-12.293l.839-.723-.868-.636c-3.269-2.4-4.917-5.9-4.917-10.413a18.8 18.8 0 0 1 6.074-14.173c4.107-3.934 9.256-5.872 15.764-5.872a17.628 17.628 0 0 1 8.215 1.909l1.591.81-.347-1.764c-.665-3.355-3.413-5.293-7.549-5.293a15.51 15.51 0 0 0-3.182.347 10.392 10.392 0 0 1-.463-2.892 9.2 9.2 0 0 1 2.979-6.884 10.662 10.662 0 0 1 7.2-2.893m-12.64 43.04c2.6 0 4.021-2.256 4.744-4.165a21.662 21.662 0 0 0 1.475-7.752c0-4.8-2.025-5.785-3.7-5.785-1.967 0-3.587 1.388-4.8 4.107a17.92 17.92 0 0 0-1.678 7.723c0 4.859 2.169 5.872 3.963 5.872m12.64-43.908a11.214 11.214 0 0 0-7.781 3.182 10.079 10.079 0 0 0-3.268 7.52 11.538 11.538 0 0 0 .752 3.934 14.937 14.937 0 0 1 3.76-.492c3.587 0 6.1 1.591 6.682 4.6a18.549 18.549 0 0 0-8.62-2c-6.682 0-12.12 2-16.372 6.1a19.794 19.794 0 0 0-6.364 14.781c0 4.773 1.764 8.533 5.264 11.107-4.6 3.934-6.942 8.273-6.942 12.958 0 6.277 2.748 10.066 10.673 10.384.347 0 .694.029 1.041.029 6.971 0 13.826-2.574 20.45-2.574 2 0 3.5.723 4.223 3.384q8.764-4.382 8.764-12.033c0-5-3.413-8.851-9.69-8.851-5 0-12.5 2.343-20.508 2.343-1.591 0-2.748-.839-2.748-2.169a1.775 1.775 0 0 1 .087-.752 19.663 19.663 0 0 0 5.611.752c6.855 0 12.293-1.851 16.372-5.438 4.107-3.673 6.19-8.677 6.19-15.128a14.891 14.891 0 0 0-2.661-8.677 15.412 15.412 0 0 0 5.93-12.438c0-6.335-4.512-10.529-10.847-10.529zm-12.64 43.04c-2.083 0-3.095-1.678-3.095-5a16.891 16.891 0 0 1 1.591-7.347c1.1-2.43 2.43-3.587 4.021-3.587 1.909 0 2.835 1.678 2.835 4.917a20.8 20.8 0 0 1-1.417 7.434c-.926 2.43-2.256 3.587-3.934 3.587z" class="cls-23" transform="translate(-1019.1 -81.7)"/>
            </g>
        </g>
        <g id="Group_24" transform="translate(345.156 56.449)">
            <g id="Group_22" transform="translate(.405 .434)">
                <path id="Path_15" d="M1176.871 183.173c-5.177 0-9.429-1.5-12.669-4.483-3.182-3.008-4.8-7.2-4.8-12.467a24.4 24.4 0 0 1 7.231-17.673 23.439 23.439 0 0 1 17.324-7.55c8.359 0 13.768 4.165 13.768 10.587a13.464 13.464 0 0 1-3.818 9.227c-2.864 3.211-8.735 5.12-15.706 5.12h-3.24l.26.607c1.07 2.516 3.3 3.76 6.595 3.76a12.99 12.99 0 0 0 10.153-4.917c1.3.694 2.2 2.632 2.2 4.917 0 3.24-1.562 6.132-4.773 8.851-3.183 2.719-7.29 4.021-12.525 4.021zm3.934-31.846c-2.6 0-5.64 3.326-6.19 9.516l-.058.492.521-.029c5.438-.376 8.677-2.777 8.677-6.45 0-2.922-1.62-3.53-2.955-3.53z" transform="translate(-1159.4 -141)"/>
            </g>
            <g id="Group_23">
                <path id="Path_16" d="M1182.991 140.368c8.1 0 13.334 3.992 13.334 10.153a13.1 13.1 0 0 1-3.7 8.938c-2.777 3.124-8.533 4.975-15.388 4.975h-3.937l.521 1.215c1.417 3.326 4.6 4.049 6.971 4.049a13.314 13.314 0 0 0 10.24-4.8c1.1.81 1.677 2.69 1.677 4.339 0 3.095-1.5 5.9-4.628 8.533-3.095 2.6-7.087 3.876-12.235 3.876-5.062 0-9.227-1.475-12.351-4.368-3.095-2.921-4.657-7.029-4.657-12.148a23.852 23.852 0 0 1 7.115-17.355 22.827 22.827 0 0 1 17.037-7.4m-9.893 20.363l1.012-.058c5.7-.376 9.082-2.95 9.082-6.884 0-3.442-2.112-3.963-3.384-3.963-3.731 0-6.19 5.091-6.624 9.892l-.087 1.012m9.893-21.231a23.762 23.762 0 0 0-17.644 7.694 24.888 24.888 0 0 0-7.345 17.956c0 5.438 1.678 9.69 4.917 12.785 3.355 3.1 7.694 4.6 12.958 4.6s9.516-1.331 12.785-4.107 4.917-5.756 4.917-9.2c0-2.661-1.157-4.859-2.748-5.438a12.524 12.524 0 0 1-10.037 5c-3.095 0-5.178-1.157-6.19-3.5h2.6c7.607 0 13.277-2.169 16.053-5.264a14.051 14.051 0 0 0 3.934-9.516c0-7.087-6.19-11.02-14.2-11.02zm-8.938 20.305c.405-4.686 2.748-9.111 5.756-9.111 1.677 0 2.516 1.012 2.516 3.095 0 3.587-3.269 5.7-8.273 6.016z" class="cls-23" transform="translate(-1158 -139.5)"/>
            </g>
        </g>
        <g id="Group_27" transform="translate(382.875 56.449)">
            <g id="Group_25" transform="translate(.463 .434)">
                <path id="Path_17" d="M1299.43 182.826c-5.727 0-9.43-3.818-9.43-9.748 0-2.169.694-5.872 2.169-11.339 1.5-5.7 2.2-9.082 2.2-10.963a12.532 12.532 0 0 0-1.331-6.045c1.851-1.938 4.426-2.893 7.9-2.893 3.963 0 6.624 1.388 8.128 4.281l.318.607.4-.55a12.417 12.417 0 0 1 10.269-5.176c5.206 0 8.851 4.021 8.851 9.748a12.343 12.343 0 0 1-3.471 9.227 11.128 11.128 0 0 1-8.215 3.558 9.045 9.045 0 0 1-5.062-1.128 14.872 14.872 0 0 0 1.649-6.392c0-2.343-1.157-2.69-1.851-2.69-1.331 0-2.459 1.475-3.326 4.4a36.931 36.931 0 0 0-1.186 9.835c0 3.587 1.128 8.128 3.066 9.892-1.678 3.033-6.45 5.376-11.078 5.376z" transform="translate(-1290 -141)"/>
            </g>
            <g id="Group_26">
                <path id="Path_18" d="M1318.916 140.368c4.946 0 8.417 3.847 8.417 9.314a12 12 0 0 1-3.326 8.909 10.713 10.713 0 0 1-7.9 3.413 9.645 9.645 0 0 1-4.483-.839 14.976 14.976 0 0 0 1.533-6.219c0-2.835-1.591-3.124-2.285-3.124-1.562 0-2.806 1.533-3.76 4.715a36.37 36.37 0 0 0-1.215 9.921c0 3.529 1.1 7.954 2.95 9.95-1.736 2.777-6.19 4.888-10.529 4.888-5.553 0-9-3.587-9-9.314 0-2.112.694-5.785 2.141-11.223 1.533-5.727 2.2-9.169 2.2-11.078a13.52 13.52 0 0 0-1.215-5.959c1.735-1.707 4.165-2.545 7.376-2.545 3.789 0 6.306 1.331 7.752 4.05l.636 1.186.81-1.07a11.962 11.962 0 0 1 9.892-4.975m0-.868a12.866 12.866 0 0 0-10.615 5.351c-1.591-3.008-4.426-4.512-8.533-4.512-3.76 0-6.508 1.1-8.446 3.269a11.909 11.909 0 0 1 1.417 6.1c0 1.909-.752 5.525-2.169 10.876s-2.169 9.2-2.169 11.454c0 6.1 3.76 10.182 9.864 10.182 5 0 10.037-2.6 11.628-5.93-1.909-1.417-3.182-6.1-3.182-9.777a36.15 36.15 0 0 1 1.157-9.69c.839-2.748 1.851-4.107 2.922-4.107.925 0 1.417.752 1.417 2.256a14.507 14.507 0 0 1-1.764 6.508c1.1.926 3.008 1.417 5.612 1.417a11.423 11.423 0 0 0 8.533-3.673 12.847 12.847 0 0 0 3.587-9.516c.029-6.016-3.818-10.21-9.256-10.21z" class="cls-23" transform="translate(-1288.4 -139.5)"/>
            </g>
        </g>
        <g id="Group_48" transform="translate(14.359 22.65)">
            <g id="Group_29" transform="translate(56.589 9.213)">
                <g id="Group_28">
                    <path id="Path_19" d="M219.6 54.5a39.51 39.51 0 0 0-9.6 8.475" transform="translate(-210 -54.5)"/>
                </g>
            </g>
            <g id="Group_30" transform="translate(76.692)">
                <path id="Path_20" d="M323.177 26.714c-7.954 3.934-18.743 3.673-27.16.781a12.437 12.437 0 0 0-.781-2.921 2.961 2.961 0 0 0-1.62-1.851 2.6 2.6 0 0 0-2.719 1.388c-.578.926-.839 2.025-1.417 2.979a22.817 22.817 0 0 0-9.979.492 39.646 39.646 0 0 0 19.09 6.161 62.732 62.732 0 0 0 8.07-.289 14.965 14.965 0 0 0 4.4-.81c.665-.26 1.3-.636 1.938-.955.781-.376 1.793-.492 2.574-.868 2.627-1.272 5.377-2.256 7.604-4.107z" class="cls-23" transform="translate(-279.5 -22.65)"/>
            </g>
            <g id="Group_31" transform="translate(118.362 1.897)">
                <ellipse id="Ellipse_1" cx="1.475" cy="1.128" stroke="#fff" stroke-miterlimit="10" rx="1.475" ry="1.128" transform="rotate(-62.451 2.158 1.308)"/>
            </g>
            <g id="Group_33" transform="translate(113.832 27.667)">
                <g id="Group_32"/>
            </g>
            <g id="Group_34" transform="translate(0 .014)">
                <path id="Path_22" d="M81.666 108.532c-.347 0-.723 0-1.07-.029a13.188 13.188 0 0 1-6.913-2.025 15.9 15.9 0 0 1-4.57-5.438 43.032 43.032 0 0 1-2.864-6.161l-.347-.955c-.116-.318-.2-.607-.318-.926-.029-.087-.174-.55-.174-.55-.029-.116-.087-.26-.116-.376-.058-.145-.087-.289-.145-.463l-.145-.463a5.829 5.829 0 0 0-.2-.665l-.058-.231c-.058-.26-.145-.492-.2-.752l-.029-.145c-.058-.26-.145-.55-.2-.81l-.029-.087c-.058-.289-.145-.578-.2-.868v-.029c-.058-.289-.145-.607-.2-.9a80.462 80.462 0 0 1-1.359-8.5c-.029-.318-.087-1.1-.145-1.851-.058-.81-.116-1.591-.174-1.88a1.261 1.261 0 0 0-2.285-.289 94.6 94.6 0 0 0-6.971 26.524 19.816 19.816 0 0 1-4.483.579 12.026 12.026 0 0 1-4.773-1.041c-8.052-5.611-11.262-24.846-11.754-28.172h.029l-.116-.521a39.968 39.968 0 0 1-.694-7.463 49.476 49.476 0 0 1 .55-8.1l.116-.752-.694.26a16.183 16.183 0 0 1-5.843 1.186 10.7 10.7 0 0 1-4.975-1.186c-4.541-2.372-5.5-5.64-3.153-10.615a39.278 39.278 0 0 1 5.036-7.461 43.335 43.335 0 0 0 4.541-6.537 3.378 3.378 0 0 0-.521-4.31 12.174 12.174 0 0 1 6.711-2.43 8.7 8.7 0 0 1 3.992 1.012c3.5 1.822 4.483 5.5 2.459 9.372a41.791 41.791 0 0 1-3.5 5.091 56.324 56.324 0 0 0-5.554 8.33 2.914 2.914 0 0 0-.347 1.851 1.961 1.961 0 0 0 1.041 1.417 1.675 1.675 0 0 0 .752.26h.376l.058-.347a14.7 14.7 0 0 1 1.475-4.049 23.711 23.711 0 0 1 2.777-4.223l.029-.029v-.029a22.122 22.122 0 0 1 5.814-6.1c3.818-2.69 10.153-4.049 18.859-4.049a131.061 131.061 0 0 1 19.553 1.735l.231.029.145-.174c.955-1.012 1.822-2.025 2.777-3.182a3.321 3.321 0 0 0 .55-.81 3.312 3.312 0 0 0 .2-1.012V29.1c.058-.723.318-2.43 1.5-2.864a1.608 1.608 0 0 1 .665-.116 4.128 4.128 0 0 1 1.3.26 10.957 10.957 0 0 1 3.326 1.822c5.785 4.686 14.058 5.351 20.71 5.9.376.029.81.058 1.273.058A76.606 76.606 0 0 0 128.524 32a80.407 80.407 0 0 1-13.566 7.463 21.929 21.929 0 0 0-3.731 2.025c-1.938 1.186-3.76 2.314-5.93 2.314a3.876 3.876 0 0 1-.578-.029c-1.822-.174-2.14-.347-2.372-.492-.4-.231-.752-.376-2.748-.4a6.109 6.109 0 0 1-.434-.434c-.578-.607-.752-.752-1.012-.752h-.087l-.087.029a1.866 1.866 0 0 0-1.041 1.1 1.521 1.521 0 0 0-.116.492c-.116-.029-.26-.087-.376-.116a5.671 5.671 0 0 0-1.3-.289.619.619 0 0 0-.521.2c-.029.029-.029.058-.058.058-.174-.029-.4-.116-.607-.174a4.6 4.6 0 0 0-1.041-.231.6.6 0 0 0-.492.2.568.568 0 0 0-.145.434c.087 1.012 1.707 1.07 3.153 1.1a7.759 7.759 0 0 1 .983.058 2.837 2.837 0 0 1 .058.781 1.978 1.978 0 0 0 .347 1.417.328.328 0 0 0 .087.231.84.84 0 0 0 .781.347 6.446 6.446 0 0 0 .955-.087 8.487 8.487 0 0 1 1.186-.087 1.156 1.156 0 0 1 .665.116.4.4 0 0 1 .116.087.39.39 0 0 0 0 .318.456.456 0 0 0 .434.26c.2.26.694.347 1.533.463a10.305 10.305 0 0 1 1.3.26 1.639 1.639 0 0 1-.318.289c-.145.116-.376.289-.26.607l.116.289h.318a1.172 1.172 0 0 0 .347-.087.411.411 0 0 1 .174-.058c0 .058.029.174.029.231a.367.367 0 0 0 .029.174c.145.983 1.591.983 2.083.983a21.493 21.493 0 0 0 2.806-.26c.145-.029.318-.029.434-.058a.878.878 0 0 0-.145.2c-.521.694-1.128 1.562-.81 2.343a.571.571 0 0 0 .521.347h.087a81.079 81.079 0 0 1-1.417 13.161v.058a45.484 45.484 0 0 1-2.14 7.839c-.578 1.591-1.215 3.182-2 4.859v.029c-2.025 5.467-4.31 13.19-3.558 19.033-.752 1.041-3.413 2.864-8.677 2.864a7.931 7.931 0 0 1-2.921-.955 5.254 5.254 0 0 1-1.967-3.24c-.087-.636-.174-1.273-.231-1.88a35.17 35.17 0 0 1-.116-5.235v-.087c0-.116.029-.26.029-.4.058-.781.087-1.215.116-1.446a32.736 32.736 0 0 1 2-8.446c.231-.578.463-1.157.752-1.764a1.131 1.131 0 0 0-.4-1.475 1.2 1.2 0 0 0-.55-.145 1.086 1.086 0 0 0-.991.568l-.087.174-.058.116a32.707 32.707 0 0 0-1.967 5.583v.027c-.087.318-.145.636-.231.926v.029c-.058.318-.145.607-.2.926v.058c-.058.289-.116.607-.174.9l-.029.116c-.058.289-.087.578-.145.868l-.029.177c-.029.26-.058.55-.087.81l-.029.231a6.58 6.58 0 0 0-.058.752c0 .058-.029.376-.029.376a4.27 4.27 0 0 0-.029.607v.55a2.19 2.19 0 0 1-.029.434v2c0 .318.029.607.029.926l.029.289c0 .2.029.434.029.636l.029.318c.029.231.029.492.058.723l.029.2.087.868.058.347c.029.174.058.376.087.55.029.116.029.26.058.376.029.2.058.376.087.578l.058.347c.116.665.231 1.3.376 1.938.289 1.3.636 2.6 1.041 3.876.2.636.434 1.3.665 1.938l.058.145c.029.087.058.145.087.231 0 .029.029.058.029.087a.292.292 0 0 1-.087.231 2.008 2.008 0 0 1-.868.723 2.92 2.92 0 0 1-1.07.231l-.2.029a15.822 15.822 0 0 1-3.042.285z" transform="translate(-15.474 -23.695)"/>
                <path id="Path_23" d="M31.783 23.568a8.092 8.092 0 0 1 3.789.955c3.326 1.735 4.194 5.091 2.285 8.793a41.069 41.069 0 0 1-3.471 5.033 60.379 60.379 0 0 0-5.611 8.388 3.4 3.4 0 0 0-.4 2.14 2.39 2.39 0 0 0 1.273 1.735 2.082 2.082 0 0 0 .926.318h.723l.145-.723a14.751 14.751 0 0 1 1.417-3.934 24.656 24.656 0 0 1 2.719-4.165l.029-.029.029-.029a21.281 21.281 0 0 1 5.7-5.987c3.731-2.632 10.008-3.963 18.6-3.963a129.792 129.792 0 0 1 19.466 1.735l.463.058.318-.318c.983-1.012 1.851-2.054 2.806-3.211a3.946 3.946 0 0 0 .607-.926 3.571 3.571 0 0 0 .231-1.157V28.2c.029-.492.231-2.14 1.215-2.488a1.4 1.4 0 0 1 .521-.087 4.43 4.43 0 0 1 1.186.231 10.556 10.556 0 0 1 3.211 1.764c5.872 4.8 14.231 5.467 20.913 6.016.376.029.839.058 1.3.058a74.613 74.613 0 0 0 12.927-1.651 87.377 87.377 0 0 1-11.541 6.132 22.893 22.893 0 0 0-3.818 2.054c-1.88 1.157-3.645 2.256-5.7 2.256a3.143 3.143 0 0 1-.521-.029c-1.735-.145-2.025-.318-2.2-.434-.492-.289-.926-.434-2.777-.463l-.289-.289c-.607-.636-.868-.9-1.331-.9h-.145l-.145.058a2.325 2.325 0 0 0-1.3 1.359c0 .029-.029.058-.029.087a5.048 5.048 0 0 0-1.331-.289 1.1 1.1 0 0 0-.694.231l-.347-.087a5.2 5.2 0 0 0-1.186-.26 1.062 1.062 0 0 0-.81.318.9.9 0 0 0-.26.752c.116 1.388 2.025 1.446 3.587 1.5.231 0 .434.029.636.029v.376a2.753 2.753 0 0 0 .376 1.62.545.545 0 0 0 .116.26 1.2 1.2 0 0 0 1.157.55 6.18 6.18 0 0 0 .983-.087 7.7 7.7 0 0 1 1.128-.087.989.989 0 0 1 .318.029c.029.116.058.2.058.231a.843.843 0 0 0 .636.492 3.61 3.61 0 0 0 1.678.492c.145.029.318.058.492.087a.805.805 0 0 0-.116.781l.2.578h.752c.174.839 1.012 1.273 2.488 1.273a20.254 20.254 0 0 0 2.314-.174 2.367 2.367 0 0 0-.434 2.169.967.967 0 0 0 .55.521 79.8 79.8 0 0 1-1.388 12.7v.087a44.45 44.45 0 0 1-2.112 7.752v.029c-.578 1.562-1.215 3.153-1.967 4.83v.058C100.1 84.108 97.848 91.8 98.513 97.7c-.839.983-3.355 2.545-8.215 2.545a7.062 7.062 0 0 1-2.719-.9 4.883 4.883 0 0 1-1.793-2.979c-.087-.607-.174-1.244-.231-1.822a34.017 34.017 0 0 1-.116-5.149v-.087c0-.116.029-.26.029-.376.058-.607.087-1.1.116-1.446a31.575 31.575 0 0 1 1.967-8.33c.231-.578.463-1.128.752-1.735a1.589 1.589 0 0 0-.578-2.054 1.433 1.433 0 0 0-.781-.2 1.448 1.448 0 0 0-1.359.839 1.409 1.409 0 0 0-.087.2c-.029.029-.029.087-.058.116a31.851 31.851 0 0 0-2 5.64V82c-.087.318-.145.636-.231.926v.029c-.058.318-.145.636-.2.955v.087c-.058.318-.116.607-.174.9V85c-.058.318-.087.607-.145.868v.174a7.8 7.8 0 0 1-.116.81v.231c-.029.26-.058.492-.087.752a.492.492 0 0 1-.029.2v.174a4.271 4.271 0 0 0-.029.607v.55a2.647 2.647 0 0 1-.029.463v2.031c0 .289.029.578.029.926v.289c0 .231.029.434.029.665v.06a.8.8 0 0 0 .029.26c.029.231.029.492.058.723v.2l.087.868c0 .087.029.2.029.289v.06c.029.174.058.376.087.55.029.145.029.26.058.4.029.2.058.376.087.579l.029.145c0 .058.029.145.029.2.116.665.231 1.331.376 1.938a39.725 39.725 0 0 0 1.07 3.934c.2.665.434 1.3.694 1.967.029.058.029.116.058.145a.411.411 0 0 1 .058.174 1.448 1.448 0 0 1-.665.55 2.27 2.27 0 0 1-.926.174l-.2.029c-1.041.087-1.967.116-2.835.116-.347 0-.694 0-1.041-.029a12.855 12.855 0 0 1-6.711-1.967 14.728 14.728 0 0 1-4.429-5.291 42.225 42.225 0 0 1-2.835-6.1c-.116-.318-.231-.636-.347-.926s-.2-.607-.318-.926l-.087-.26-.058-.145-.029-.145c-.029-.116-.087-.231-.116-.376-.058-.145-.087-.289-.145-.434l-.029-.116-.029-.116a.681.681 0 0 1-.058-.231 5.829 5.829 0 0 0-.2-.665l-.029-.116-.029-.116c-.058-.26-.145-.492-.2-.752l-.029-.058-.029-.087c-.058-.26-.145-.55-.2-.81v-.087c-.058-.289-.145-.578-.2-.868v-.029c-.058-.26-.116-.55-.174-.81v-.029l-.116-.058a73.711 73.711 0 0 1-1.331-8.446c-.029-.318-.087-1.1-.145-1.851-.058-.81-.116-1.591-.174-1.88a1.546 1.546 0 0 0-1.652-1.277 1.583 1.583 0 0 0-1.475.868 95.768 95.768 0 0 0-6.971 26.351 19.158 19.158 0 0 1-4.078.521 11.354 11.354 0 0 1-4.57-1.012c-7.549-5.293-10.76-23-11.425-27.363h.058l-.2-1.041a41.881 41.881 0 0 1-.694-7.4 48.417 48.417 0 0 1 .55-8.012l.231-1.475-1.388.55a15.884 15.884 0 0 1-5.7 1.157 10.188 10.188 0 0 1-4.779-1.131c-4.339-2.256-5.235-5.264-2.95-10.037a38.441 38.441 0 0 1 4.946-7.4 42.6 42.6 0 0 0 4.57-6.595 3.765 3.765 0 0 0-.26-4.426 11.267 11.267 0 0 1 6.074-2.083m0-.868a12.624 12.624 0 0 0-7.376 2.806c1.591 1.475 1.562 2.777.81 4.165-2.516 4.83-7.087 8.793-9.574 14-2.661 5.611-1.012 8.909 3.326 11.194a10.948 10.948 0 0 0 5.178 1.244 16.743 16.743 0 0 0 5.987-1.215 51.775 51.775 0 0 0-.55 8.157 41.186 41.186 0 0 0 .694 7.549s2.95 22.735 12.033 28.983a12.31 12.31 0 0 0 5 1.1 22.224 22.224 0 0 0 4.888-.665 93.749 93.749 0 0 1 6.971-26.7.681.681 0 0 1 .665-.347c.376 0 .752.174.781.492.058.55.26 3.095.318 3.731a72.187 72.187 0 0 0 1.369 8.558c.058.318.145.607.2.926v.029c.058.289.145.578.2.868 0 .029.029.058.029.087.058.26.145.55.2.81a1.253 1.253 0 0 0 .029.145c.058.26.145.492.2.752a.894.894 0 0 1 .058.231 5.83 5.83 0 0 0 .2.665 1.631 1.631 0 0 0 .116.347c.058.2.116.376.174.578.058.174.116.347.174.492s.087.289.145.434c.116.318.2.607.318.926L64.7 94a44.933 44.933 0 0 0 2.892 6.219 16.279 16.279 0 0 0 4.715 5.583 13.563 13.563 0 0 0 7.144 2.112c.347.029.723.029 1.07.029.955 0 1.938-.058 2.892-.145a3.641 3.641 0 0 0 1.417-.289 2.647 2.647 0 0 0 1.041-.9.916.916 0 0 0 .116-.463v-.087c0-.058-.029-.087-.029-.145-.058-.145-.087-.26-.145-.4-.231-.636-.463-1.273-.665-1.909-.4-1.273-.752-2.545-1.041-3.847-.145-.636-.26-1.273-.376-1.909-.029-.116-.029-.231-.058-.318-.029-.174-.058-.376-.087-.55-.029-.116-.029-.26-.058-.376-.029-.174-.058-.347-.087-.55-.029-.116-.029-.231-.058-.347l-.087-.868a.367.367 0 0 0-.029-.174 6.088 6.088 0 0 1-.058-.723c0-.116-.029-.2-.029-.318a4.686 4.686 0 0 1-.029-.636 1.085 1.085 0 0 0-.029-.289c0-.289-.029-.607-.029-.9v-1.965c0-.2.029-.376.029-.578a1.909 1.909 0 0 1 .029-.4 5.165 5.165 0 0 1 .058-.665 1.186 1.186 0 0 1 .029-.318 6.088 6.088 0 0 0 .058-.723c0-.087.029-.145.029-.231.029-.26.058-.521.087-.81a.367.367 0 0 1 .029-.174c.029-.289.087-.55.116-.839a.174.174 0 0 1 .029-.116c.058-.289.116-.578.174-.9v-.058c.058-.318.116-.607.2-.926v-.029a8.653 8.653 0 0 1 .231-.926 34.8 34.8 0 0 1 1.938-5.525c.058-.087.087-.2.145-.289a.61.61 0 0 1 .578-.318.77.77 0 0 1 .347.087.669.669 0 0 1 .231.926c-.289.578-.55 1.186-.781 1.793a32.344 32.344 0 0 0-2.025 8.591c0 .289-.029.752-.087 1.417a2.806 2.806 0 0 0-.029.492 40.435 40.435 0 0 0 .116 5.293c.058.636.145 1.273.231 1.909a5.448 5.448 0 0 0 2.169 3.529 8.169 8.169 0 0 0 3.153 1.012c7.26 0 9.169-3.182 9.169-3.182-.81-5.9 1.62-13.913 3.529-18.975.723-1.62 1.417-3.24 2-4.888a46.456 46.456 0 0 0 2.14-7.925v-.029a86.31 86.31 0 0 0 1.475-13.913c0-.087 0-.116-.029-.116-.087 0-.347.347-.521.347-.058 0-.087-.029-.116-.087-.463-1.012 1.938-2.835.983-2.835h-.087c-.665.058-2.314.347-3.616.347-.9 0-1.591-.145-1.649-.607-.029-.289 0-.636-.26-.752a.367.367 0 0 0-.174-.029 1.766 1.766 0 0 0-.376.087c-.116.029-.145.058-.174.058-.116 0 1.1-.694.521-1.07-.694-.4-3.413-.434-2.748-.868h-.376c-.376 0 .4-.087-.376-.607a1.6 1.6 0 0 0-.9-.174c-.723 0-1.591.174-2.112.174-.347 0-.55-.087-.347-.4-.839-.087 0-2.2-.839-2.372-.839-.145-3.731.058-3.789-.781 0-.116.087-.145.2-.145.434 0 1.417.434 1.822.434.145 0 .2-.029.2-.145s.058-.145.2-.145c.492 0 1.707.492 2.083.492.087 0 .145-.029.087-.116-.26-.492.26-1.417.81-1.591.145 0 1.186 1.186 1.3 1.186 4.021.029 1.215.55 5.206.9a4.272 4.272 0 0 0 .607.029c3.673 0 6.277-2.979 9.834-4.368 3.731-1.475 12.438-6.161 15.388-8.88a73.634 73.634 0 0 1-17.095 2.748 8.349 8.349 0 0 1-1.244-.058c-7.144-.578-14.9-1.273-20.479-5.814a11.647 11.647 0 0 0-3.471-1.909 4.944 4.944 0 0 0-1.446-.289 1.918 1.918 0 0 0-.81.145c-1.215.463-1.678 1.938-1.793 3.24a2.938 2.938 0 0 1-.174.983 2.906 2.906 0 0 1-.463.694c-.9 1.07-1.793 2.169-2.748 3.153a129.374 129.374 0 0 0-19.611-1.764c-7.434 0-14.665 1.012-19.09 4.107a22.564 22.564 0 0 0-5.93 6.248A24.1 24.1 0 0 0 32.1 45.9a15.493 15.493 0 0 0-1.5 4.165 1.436 1.436 0 0 1-.55-.2c-.926-.492-1.1-1.591-.521-2.719 2.892-5.583 7.26-9.921 9.054-13.421 2.285-4.368.839-8.128-2.632-9.95a9.1 9.1 0 0 0-4.165-1.07z" class="cls-23" transform="translate(-14.359 -22.7)"/>
            </g>
            <g id="Group_38" transform="translate(73.074 3.331)">
                <g id="Group_35" transform="translate(.668 .732)">
                    <path id="Path_24" d="M315.927 36.7c-3.066 8.041-10.326 13.942-18.31 17.124a17.1 17.1 0 0 0-4.657 2.314c-1.909 1.5-2.921 3.847-3.876 6.074a3.414 3.414 0 0 1-.9.926 1.534 1.534 0 0 1-.955-1.851c-1.128.376-2.227.781-3.355 1.157a3.8 3.8 0 0 0-.81-2.921 18.072 18.072 0 0 1-3.673 1.157 6.487 6.487 0 0 0 .231-3.153c-1.273.087-2.516.2-3.789.289a22.825 22.825 0 0 0 .231-2.459.88.88 0 0 0-1.128-1.041c-1.041 0-2.112-.029-3.153-.029a2.464 2.464 0 0 0-.174-2.69 4.9 4.9 0 0 0-2.314-1.62c2 .145 3.992.289 5.959.376 5.756.318 11.6.434 17.21-.955 7.231-1.793 13.624-6.016 19.5-10.587a13.047 13.047 0 0 1 3.963-2.111z" class="cls-23" transform="translate(-269.3 -36.7)"/>
                </g>
                <g id="Group_37">
                    <g id="Group_36">
                        <path id="Path_25" d="M313.649 34.727a27.518 27.518 0 0 1-9 11.628 36.761 36.761 0 0 1-6.45 3.963c-1.157.55-2.314 1.041-3.5 1.5a15.1 15.1 0 0 0-3.876 2.054 11.084 11.084 0 0 0-2.806 3.616c-.347.665-.376 1.215-.694 1.909-.087.174.26.492.2.665-.029.058-.058 0-.087.058.636-.087-.665 1.186-1.186.145a.81.81 0 0 1-.058-.578.69.69 0 0 0-.839-.839c-1.128.376-2.227.781-3.355 1.157l.839.839a4.607 4.607 0 0 0-.983-3.587.658.658 0 0 0-.81-.116 16.844 16.844 0 0 1-3.5 1.07l.839.839a7.306 7.306 0 0 0 .231-3.529.686.686 0 0 0-.665-.492c-1.273.087-2.516.2-3.789.289.231.289.434.578.665.868a19.882 19.882 0 0 0 .231-2.256c.029-.723 0-1.475-.694-1.88a4.111 4.111 0 0 0-1.967-.231c-.752 0-1.533 0-2.285-.029.2.347.376.665.578 1.012a3.089 3.089 0 0 0-.116-3.3 5.453 5.453 0 0 0-2.748-2c-.058.434-.116.9-.174 1.331 3.529.26 7.058.492 10.587.55a53.884 53.884 0 0 0 10.355-.665c6.335-1.1 12.148-4.078 17.413-7.723 1.475-1.012 2.921-2.083 4.339-3.182a13.753 13.753 0 0 1 2.025-1.359 18.245 18.245 0 0 1 2.169-.955.689.689 0 0 0 .463-.839.676.676 0 0 0-.839-.463c-1.359.521-1.562 1.1-2.748 1.967a13.519 13.519 0 0 1-2.43 1.591c-4.194 2.343-9.487 3.818-19.438 3.9-4.021.029 3.124 4.83.058 5.467a46.157 46.157 0 0 1-10.182.9c-3.934-.029-7.868-.289-11.772-.578a.683.683 0 0 0-.665.578.746.746 0 0 0 .492.752 3.977 3.977 0 0 1 1.909 1.3 1.808 1.808 0 0 1 .174 2 .675.675 0 0 0 .578 1.012c.607 0 1.244 0 1.851.029a9.554 9.554 0 0 1 1.591.029c.087.029.174.029.2.058-.058-.087-.029.029-.029.058a6.29 6.29 0 0 1-.029.723c-.029.607-.087 1.186-.174 1.793a.7.7 0 0 0 .665.868c1.273-.087 2.516-.2 3.789-.289-.231-.174-.434-.318-.665-.492a6.19 6.19 0 0 1-.231 2.806.69.69 0 0 0 .839.839A18.023 18.023 0 0 0 281.8 58.3a7.8 7.8 0 0 1-.81-.116 3.053 3.053 0 0 1 .636 2.256c-.058.463.289 1.012.839.839 1.128-.376 2.227-.781 3.355-1.157l-.839-.839a2.338 2.338 0 0 0 .521 2.112 2 2 0 0 0 .9.578c.4.116.752-.2 1.012-.463a4.747 4.747 0 0 0 .607-.694 10.652 10.652 0 0 0 .434-1.012c.289-.665.607-1.331.954-1.967a9.662 9.662 0 0 1 2.748-3.269 21.573 21.573 0 0 1 4.136-1.938 36.217 36.217 0 0 0 13.8-9.487 27.243 27.243 0 0 0 4.917-8.07.676.676 0 0 0-.463-.839.737.737 0 0 0-.898.493z" transform="translate(-266.991 -34.168)"/>
                    </g>
                </g>
            </g>
            <g id="Group_40" transform="translate(80.307 11.74)">
                <g id="Group_39">
                    <path id="Path_26" d="M293.27 66.061a7.3 7.3 0 0 1 .376-.636c0-.029.116-.174.058-.087.029-.058.087-.087.116-.116l.116-.116s.174-.145.087-.087l.26-.174s.174-.087.087-.058c.058-.029.116-.029.174-.058s.116-.029.174-.058c0 0 .2-.029.087-.029a.826.826 0 0 1 .376 0c.087 0-.058-.029.058 0 .058.029.116.029.174.058.116.029-.029-.029.029 0 .029.029.087.029.116.058.029 0 .174.116.029.029l.087.087.087.087c.029.029.116.145.029.029a4.353 4.353 0 0 1 .289.492.22.22 0 0 0 .058.116c.029.087.058.2.087.289a.677.677 0 0 0 1.3-.376 4.971 4.971 0 0 0-.694-1.417 2.344 2.344 0 0 0-1.591-.839 2.75 2.75 0 0 0-1.88.521 5.013 5.013 0 0 0-1.273 1.533.688.688 0 0 0 .231.926.66.66 0 0 0 .955-.174z" class="cls-23" transform="translate(-291.996 -63.237)"/>
                </g>
            </g>
            <g id="Group_46" transform="translate(116.576 1.557)">
                <g id="Group_45">
                    <g id="Group_41" transform="translate(2.723 2.276)"/>
                    <g id="Group_42" transform="translate(2.694 2.305)"/>
                    <g id="Group_43" transform="translate(2.028 1.929)">
                        <path id="Path_29" d="M425.7 36.5a1.037 1.037 0 0 1 .2-.289 1.225 1.225 0 0 0-.145.2 1.658 1.658 0 0 1 .318-.318 1.23 1.23 0 0 1-.2.145c.116-.087.174-.116.116-.087" transform="translate(-425.324 -35.695)"/>
                        <path id="Path_30" d="M425.152 35.712l-.752-.4.087-.174.145-.2.058-.058.2-.145.029.029-.029-.058.579.174a.367.367 0 0 1-.058.492c-.058.058-.116.087-.174.145a.689.689 0 0 1-.085.195z" class="cls-23" transform="translate(-424.4 -34.7)"/>
                    </g>
                    <g id="Group_44">
                        <path id="Path_31" d="M419.27 30.88a2.446 2.446 0 0 0 .174 2.748 1.935 1.935 0 0 0 2.43.318 2.885 2.885 0 0 0 1.359-2.314 2.111 2.111 0 0 0-.318-1.244 1.887 1.887 0 0 0-1.128-.81 2.311 2.311 0 0 0-2.516 1.3" transform="translate(-418.485 -29.096)"/>
                        <path id="Path_32" d="M419.7 33.576a2.193 2.193 0 0 1-1.7-.752 2.866 2.866 0 0 1-.231-3.211 2.8 2.8 0 0 1 2.979-1.533 2.238 2.238 0 0 1 1.388.983 2.849 2.849 0 0 1 .4 1.5 3.243 3.243 0 0 1-1.562 2.661 2.228 2.228 0 0 1-1.274.352zm-1.157-3.558a2.039 2.039 0 0 0 .116 2.256 1.492 1.492 0 0 0 1.88.2 2.365 2.365 0 0 0 1.128-1.938 1.85 1.85 0 0 0-.26-.983 1.431 1.431 0 0 0-.839-.636 1.918 1.918 0 0 0-2.02 1.101z" class="cls-23" transform="translate(-417.387 -28.032)"/>
                    </g>
                </g>
            </g>
            <g id="Group_47" transform="translate(92.89 25.092)">
                <path id="Path_33" d="M337 120.131s.607-7.26.434-10.731" transform="translate(-336.566 -109.4)"/>
                <path id="Path_34" d="M336.368 120.16l-.868-.058c0-.058.607-7.26.434-10.673l.868-.029c.173 3.471-.402 10.471-.434 10.76z" class="cls-23" transform="translate(-335.5 -109.4)"/>
            </g>
        </g>
    </g>
</svg>
